<?xml version="1.0" encoding="UTF-8" standalone="no"?>
<!-- Created with Inkscape (http://www.inkscape.org/) -->

<svg
   xmlns:dc="http://purl.org/dc/elements/1.1/"
   xmlns:cc="http://creativecommons.org/ns#"
   xmlns:rdf="http://www.w3.org/1999/02/22-rdf-syntax-ns#"
   xmlns:svg="http://www.w3.org/2000/svg"
   xmlns="http://www.w3.org/2000/svg"
   xmlns:sodipodi="http://sodipodi.sourceforge.net/DTD/sodipodi-0.dtd"
   xmlns:inkscape="http://www.inkscape.org/namespaces/inkscape"
   width="400mm"
   height="200mm"
   viewBox="0 0 400 200"
   version="1.1"
   id="svg8"
   inkscape:version="0.92.4 (5da689c313, 2019-01-14)"
   sodipodi:docname="logo-text.svg"
   inkscape:export-filename="/home/ale/Documents/GIT/ceres-lang/assets/logo.png"
   inkscape:export-xdpi="90"
   inkscape:export-ydpi="90">
  <defs
     id="defs2" />
  <sodipodi:namedview
     id="base"
     pagecolor="#ffffff"
     bordercolor="#666666"
     borderopacity="1.0"
     inkscape:pageopacity="0.0"
     inkscape:pageshadow="2"
     inkscape:zoom="0.49497475"
     inkscape:cx="664.16116"
     inkscape:cy="325.79802"
     inkscape:document-units="mm"
     inkscape:current-layer="layer1"
     showgrid="false"
     inkscape:window-width="1920"
     inkscape:window-height="1025"
     inkscape:window-x="0"
     inkscape:window-y="27"
     inkscape:window-maximized="1"
     inkscape:snap-others="true"
     inkscape:snap-global="true"
     showguides="true"
     inkscape:guide-bbox="true"
     inkscape:snap-object-midpoints="false"
     inkscape:snap-bbox="true"
     inkscape:snap-bbox-edge-midpoints="false"
     inkscape:bbox-nodes="true">
    <sodipodi:guide
       position="140,93.360118"
       orientation="1,0"
       id="guide961"
       inkscape:locked="false"
       inkscape:label=""
       inkscape:color="rgb(0,0,255)" />
    <sodipodi:guide
       position="150,100.30107"
       orientation="1,0"
       id="guide963"
       inkscape:locked="false"
       inkscape:label=""
       inkscape:color="rgb(0,0,255)" />
    <sodipodi:guide
       position="149.99997,87.08484"
       orientation="0,1"
       id="guide975"
       inkscape:locked="false" />
    <sodipodi:guide
       position="150,92.08483"
       orientation="0,1"
       id="guide977"
       inkscape:locked="false"
       inkscape:label=""
       inkscape:color="rgb(0,0,255)" />
  </sodipodi:namedview>
  <metadata
     id="metadata5">
    <rdf:RDF>
      <cc:Work
         rdf:about="">
        <dc:format>image/svg+xml</dc:format>
        <dc:type
           rdf:resource="http://purl.org/dc/dcmitype/StillImage" />
        <dc:title />
      </cc:Work>
    </rdf:RDF>
  </metadata>
  <g
     inkscape:label="Layer 1"
     inkscape:groupmode="layer"
     id="layer1"
     transform="translate(0,-97)">
    <g
       id="g949"
       transform="matrix(0.74426841,0,0,0.74426841,34.799854,51.073912)"
       inkscape:export-xdpi="90"
       inkscape:export-ydpi="90">
      <circle
         r="40.308037"
         cy="196.06648"
         cx="101.03902"
         id="path815"
         style="fill:#1c2224;fill-opacity:1;stroke:none;stroke-width:0.40324494" />
      <circle
         style="fill:#374548;fill-opacity:1;stroke:none;stroke-width:0.39473701"
         id="circle823"
         cx="100.18857"
         cy="195.21603"
         r="39.457592" />
      <circle
         r="35.866817"
         cy="192.94818"
         cx="98.298683"
         id="circle825"
         style="fill:#435458;fill-opacity:1;stroke:none;stroke-width:0.3588146" />
      <path
         sodipodi:nodetypes="ccccccsccc"
         inkscape:connector-curvature="0"
         id="ellipse841"
         transform="matrix(0.26458333,0,0,0.26458333,0,97)"
         d="m 458.67674,384.51445 c -3.31532,3.31474 -10.45321,6.35529 -13.8408,9.61855 -92.84154,89.34271 -194.36368,137.95696 -219.70508,107.23809 -10.81686,-13.23548 -4.48282,-40.61225 13.81055,-75.04882 -0.44962,-1.1801 -0.88455,-2.36574 -1.30469,-3.55665 -25.53063,44.19287 -28.09188,76.2311 -12.63281,92.19141 26.86085,27.54487 109.72916,-6.41696 198.64411,-89.87445 3.26682,-3.06632 6.54181,-6.19944 9.82248,-9.39879 9.7019,-9.46558 11.79453,-12.35048 25.46081,-26.79381 -1.32472,-0.55229 0.62498,-3.26931 -0.25457,-4.37553 z"
         style="fill:#37abc8;fill-opacity:1;stroke:none;stroke-width:1.11110067" />
      <circle
         r="6.6253605"
         cy="183.84366"
         cx="83.549072"
         id="circle827"
         style="fill:#6f8a91;fill-opacity:1;stroke:none;stroke-width:0.06628067" />
      <circle
         style="fill:#374548;fill-opacity:1;stroke:none;stroke-width:0.05966338"
         id="circle817"
         cx="83.265594"
         cy="183.37119"
         r="5.963902" />
      <circle
         r="5.2957282"
         cy="182.90347"
         cx="82.864693"
         id="circle819"
         style="fill:#37abc8;fill-opacity:1;stroke:none;stroke-width:0.05297891" />
      <circle
         style="fill:#87cdde;fill-opacity:1;stroke:none;stroke-width:0.03998068"
         id="circle821"
         cx="83.786011"
         cy="181.93492"
         r="3.9964352" />
      <path
         inkscape:connector-curvature="0"
         style="fill:#cccccc;fill-opacity:1;stroke:none;stroke-width:0.18354377"
         d="m 130.53502,190.12329 c -0.97761,-1.00247 -3.21781,0.33064 -4.10549,1.19632 -0.0622,0.0607 -0.11253,0.12026 -0.1542,0.17824 -0.005,0.006 -0.0108,0.0106 -0.0173,0.0145 l -2.49205,2.43028 c -0.2813,0.27432 -0.41221,0.64213 -0.39438,1.0044 l -3.88537,3.7891 c -0.39834,-0.038 -0.80981,0.0926 -1.12004,0.39496 l -5.17841,5.0501 c -0.32634,0.3183 -0.46461,0.75345 -0.41642,1.17204 l -1.90764,1.13426 2.63795,2.76105 1.25661,-1.82705 c 0.42758,0.072 0.88183,-0.0538 1.21741,-0.38148 l 5.17843,-5.0501 c 0.31019,-0.30254 0.451,-0.71066 0.42293,-1.10979 l 3.83717,-3.74211 c 0.39425,0.062 0.81124,-0.0555 1.12023,-0.35656 l 2.49201,-2.4303 c 0.0228,-0.0223 0.0437,-0.0458 0.0642,-0.0691 0.0609,-0.0413 0.12332,-0.0916 0.18693,-0.15357 0.88769,-0.86569 2.26136,-2.94719 1.25668,-4.00544 z"
         id="path885" />
    </g>
    <g
       aria-label="ceres"
       transform="matrix(1.5924617,0,0,1.5924617,-865.85547,-264.10853)"
       style="font-style:normal;font-variant:normal;font-weight:normal;font-stretch:normal;font-size:42.14487076px;line-height:1.25;font-family:FreeMono;-inkscape-font-specification:'FreeMono, Normal';font-variant-ligatures:normal;font-variant-caps:normal;font-variant-numeric:normal;font-feature-settings:normal;text-align:start;letter-spacing:0px;word-spacing:0px;writing-mode:lr-tb;text-anchor:start;fill:#374548;fill-opacity:1;stroke:none"
       id="flowRoot951"
       inkscape:export-xdpi="90"
       inkscape:export-ydpi="90">
      <path
         d="m 656.92251,290.1444 q 0,0.3793 -0.71647,1.09576 -0.71646,0.67432 -1.89652,1.43293 -1.13791,0.75861 -3.03443,1.30649 -1.89652,0.54788 -3.87732,0.54788 -4.1302,0 -6.82747,-2.61298 -2.65513,-2.61298 -2.65513,-6.65889 0,-4.17234 2.73942,-6.86961 2.73941,-2.69727 6.9539,-2.69727 3.91947,0 6.5746,2.31796 v -0.54788 q 0,-1.18006 0.88504,-1.18006 0.8429,0 0.8429,1.18006 v 3.83518 q 0,1.13792 -0.8429,1.13792 -0.75861,0 -0.88504,-1.01148 -0.12644,-1.6858 -2.10724,-2.82371 -1.93867,-1.18005 -4.5938,-1.18005 -3.49802,0 -5.68955,2.19153 -2.14939,2.14939 -2.14939,5.60527 0,3.32944 2.19153,5.47883 2.19154,2.10724 5.64741,2.10724 4.5938,0 7.8811,-3.03443 0.42144,-0.42145 0.7586,-0.42145 0.33716,0 0.54789,0.25287 0.25287,0.21073 0.25287,0.54789 z"
         style="font-style:normal;font-variant:normal;font-weight:normal;font-stretch:normal;font-size:42.14487076px;font-family:FreeMono;-inkscape-font-specification:'FreeMono, Normal';font-variant-ligatures:normal;font-variant-caps:normal;font-variant-numeric:normal;font-feature-settings:normal;text-align:start;letter-spacing:-2.49221063px;writing-mode:lr-tb;text-anchor:start;fill:#374548;fill-opacity:1"
         id="path999"
         inkscape:connector-curvature="0" />
      <path
         d="m 679.08498,285.46632 h -17.53227 q 0.4636,3.32944 2.78157,5.3524 2.31796,1.9808 5.7317,1.9808 1.98081,0 4.04591,-0.63217 2.06509,-0.63217 3.32944,-1.64365 0.42145,-0.29501 0.67432,-0.29501 0.33716,0 0.54788,0.25287 0.25287,0.25287 0.25287,0.59002 0,1.09577 -3.03443,2.27583 -2.99229,1.18005 -5.85814,1.18005 -4.25663,0 -7.24891,-2.86585 -2.95015,-2.86585 -2.95015,-6.9539 0,-3.83518 2.78157,-6.40602 2.78156,-2.61298 6.82746,-2.61298 4.25664,0 6.95391,2.69727 2.69727,2.65513 2.69727,7.08034 z m -17.53227,-1.72794 h 15.76219 q -0.50574,-2.86585 -2.65513,-4.59379 -2.14939,-1.72794 -5.22597,-1.72794 -3.07657,0 -5.18381,1.72794 -2.10725,1.68579 -2.69728,4.59379 z"
         style="font-style:normal;font-variant:normal;font-weight:normal;font-stretch:normal;font-size:42.14487076px;font-family:FreeMono;-inkscape-font-specification:'FreeMono, Normal';font-variant-ligatures:normal;font-variant-caps:normal;font-variant-numeric:normal;font-feature-settings:normal;text-align:start;letter-spacing:-2.49221063px;writing-mode:lr-tb;text-anchor:start;fill:#374548;fill-opacity:1"
         id="path1001"
         inkscape:connector-curvature="0" />
      <path
         d="m 701.87963,279.35531 q -0.21073,0 -1.30649,-0.88504 -1.09577,-0.88504 -2.14939,-0.88504 -1.43293,0 -2.99229,1.01147 -1.51721,1.01148 -5.01524,4.21449 v 9.31402 h 7.54393 q 1.13792,0 1.13792,0.88504 0,0.8429 -1.13792,0.8429 h -13.31777 q -1.13792,0 -1.13792,-0.88505 0,-0.84289 1.13792,-0.84289 h 4.0459 v -14.11854 h -3.16086 q -1.13791,0 -1.13791,-0.88504 0,-0.8429 1.13791,-0.8429 h 4.8888 v 4.29878 q 2.908,-2.65513 4.72023,-3.6666 1.81223,-1.05362 3.41373,-1.05362 1.6858,0 2.95014,1.01147 1.26435,1.01148 1.26435,1.60151 0,0.3793 -0.25287,0.63217 -0.25287,0.25287 -0.63217,0.25287 z"
         style="font-style:normal;font-variant:normal;font-weight:normal;font-stretch:normal;font-size:42.14487076px;font-family:FreeMono;-inkscape-font-specification:'FreeMono, Normal';font-variant-ligatures:normal;font-variant-caps:normal;font-variant-numeric:normal;font-feature-settings:normal;text-align:start;letter-spacing:-2.49221063px;writing-mode:lr-tb;text-anchor:start;fill:#374548;fill-opacity:1"
         id="path1003"
         inkscape:connector-curvature="0" />
      <path
         d="m 724.67427,285.46632 h -17.53226 q 0.46359,3.32944 2.78156,5.3524 2.31797,1.9808 5.7317,1.9808 1.98081,0 4.04591,-0.63217 2.0651,-0.63217 3.32944,-1.64365 0.42145,-0.29501 0.67432,-0.29501 0.33716,0 0.54789,0.25287 0.25286,0.25287 0.25286,0.59002 0,1.09577 -3.03443,2.27583 -2.99228,1.18005 -5.85813,1.18005 -4.25663,0 -7.24892,-2.86585 -2.95014,-2.86585 -2.95014,-6.9539 0,-3.83518 2.78156,-6.40602 2.78156,-2.61298 6.82747,-2.61298 4.25663,0 6.9539,2.69727 2.69727,2.65513 2.69727,7.08034 z m -17.53226,-1.72794 h 15.76218 q -0.50574,-2.86585 -2.65513,-4.59379 -2.14939,-1.72794 -5.22596,-1.72794 -3.07658,0 -5.18382,1.72794 -2.10724,1.68579 -2.69727,4.59379 z"
         style="font-style:normal;font-variant:normal;font-weight:normal;font-stretch:normal;font-size:42.14487076px;font-family:FreeMono;-inkscape-font-specification:'FreeMono, Normal';font-variant-ligatures:normal;font-variant-caps:normal;font-variant-numeric:normal;font-feature-settings:normal;text-align:start;letter-spacing:-2.49221063px;writing-mode:lr-tb;text-anchor:start;fill:#374548;fill-opacity:1"
         id="path1005"
         inkscape:connector-curvature="0" />
      <path
         d="m 744.60307,288.9222 q 0,-1.55936 -1.43293,-2.40226 -1.43292,-0.8429 -3.45587,-1.13791 -2.02296,-0.29502 -4.04591,-0.63218 -2.02296,-0.33715 -3.45588,-1.39078 -1.43293,-1.05362 -1.43293,-2.90799 0,-2.0651 2.02296,-3.41374 2.0651,-1.34863 5.18382,-1.34863 3.58231,0 5.77384,1.93866 v -0.16858 q 0,-1.18006 0.88505,-1.18006 0.84289,0 0.84289,1.18006 v 2.908 q 0,1.13791 -0.84289,1.13791 -0.75861,0 -0.88505,-0.96933 -0.16858,-1.43293 -1.68579,-2.27583 -1.51722,-0.84289 -3.91947,-0.84289 -2.36012,0 -3.91948,0.92718 -1.55936,0.88505 -1.55936,2.23368 0,1.26435 1.43293,1.93867 1.43292,0.67431 3.45588,0.96933 2.02295,0.25287 4.0459,0.67432 2.02296,0.3793 3.45588,1.6015 1.43293,1.18006 1.43293,3.20301 0,2.40226 -2.36011,4.00376 -2.31797,1.55936 -5.90029,1.55936 -4.0459,0 -6.61674,-2.27582 v 0.46359 q 0,1.13792 -0.8429,1.13792 -0.88504,0 -0.88504,-1.13792 v -3.49802 q 0,-1.13791 0.88504,-1.13791 0.8429,0 0.8429,0.92719 v 0.29501 q 0,1.43293 1.89652,2.48655 1.89652,1.01147 4.59379,1.01147 2.78156,0 4.63594,-1.09576 1.85437,-1.09577 1.85437,-2.78156 z"
         style="font-style:normal;font-variant:normal;font-weight:normal;font-stretch:normal;font-size:42.14487076px;font-family:FreeMono;-inkscape-font-specification:'FreeMono, Normal';font-variant-ligatures:normal;font-variant-caps:normal;font-variant-numeric:normal;font-feature-settings:normal;text-align:start;letter-spacing:-2.49221063px;writing-mode:lr-tb;text-anchor:start;fill:#374548;fill-opacity:1"
         id="path1007"
         inkscape:connector-curvature="0" />
    </g>
    <g
       aria-label="The S3MC language "
       transform="matrix(1.3668635,0,0,1.3668635,-718.49937,-179.76559)"
       style="font-style:normal;font-variant:normal;font-weight:normal;font-stretch:normal;font-size:42.14487076px;line-height:1.25;font-family:FreeMono;-inkscape-font-specification:'FreeMono, Normal';font-variant-ligatures:normal;font-variant-caps:normal;font-variant-numeric:normal;font-feature-settings:normal;text-align:start;letter-spacing:0px;word-spacing:0px;writing-mode:lr-tb;text-anchor:start;fill:#374548;fill-opacity:1;stroke:none"
       id="flowRoot973"
       inkscape:export-xdpi="90"
       inkscape:export-ydpi="90">
      <flowRoot
         xml:space="preserve"
         id="flowRoot43"
         style="font-style:normal;font-weight:normal;font-size:40px;line-height:1.25;font-family:sans-serif;letter-spacing:0px;word-spacing:0px;fill:#374548;fill-opacity:1;stroke:none"
         transform="matrix(0.08845649,0,0,0.08845649,585.17077,275.27187)"><flowRegion
           id="flowRegion45"
           style="fill:#374548;fill-opacity:1"><rect
             id="rect47"
             width="3510.2139"
             height="542.85718"
             x="566.92914"
             y="80.191231"
             style="fill:#374548;fill-opacity:1" /></flowRegion><flowPara
           id="flowPara49"
           style="font-style:normal;font-variant:normal;font-weight:normal;font-stretch:normal;font-size:96px;font-family:FreeMono;-inkscape-font-specification:'FreeMono, Normal';font-variant-ligatures:normal;font-variant-caps:normal;font-variant-numeric:normal;font-feature-settings:normal;text-align:start;writing-mode:lr-tb;text-anchor:start;fill:#374548;fill-opacity:1">A language homebrew cores </flowPara></flowRoot>    </g>
  </g>
</svg>
