<?xml version="1.0" encoding="UTF-8" standalone="no"?>
<!-- Created with Inkscape (http://www.inkscape.org/) -->

<svg
   xmlns:dc="http://purl.org/dc/elements/1.1/"
   xmlns:cc="http://creativecommons.org/ns#"
   xmlns:rdf="http://www.w3.org/1999/02/22-rdf-syntax-ns#"
   xmlns:svg="http://www.w3.org/2000/svg"
   xmlns="http://www.w3.org/2000/svg"
   xmlns:sodipodi="http://sodipodi.sourceforge.net/DTD/sodipodi-0.dtd"
   xmlns:inkscape="http://www.inkscape.org/namespaces/inkscape"
   width="400mm"
   height="200mm"
   viewBox="0 0 400 200"
   version="1.1"
   id="svg8"
   inkscape:version="0.92.5 (2060ec1f9f, 2020-04-08)"
   sodipodi:docname="logo-text.svg">
  <defs
     id="defs2" />
  <sodipodi:namedview
     id="base"
     pagecolor="#ffffff"
     bordercolor="#666666"
     borderopacity="1.0"
     inkscape:pageopacity="0.0"
     inkscape:pageshadow="2"
     inkscape:zoom="0.49497475"
     inkscape:cx="710.34592"
     inkscape:cy="518.6223"
     inkscape:document-units="mm"
     inkscape:current-layer="layer1"
     showgrid="false"
     inkscape:window-width="1366"
     inkscape:window-height="720"
     inkscape:window-x="0"
     inkscape:window-y="24"
     inkscape:window-maximized="1"
     inkscape:snap-others="true"
     inkscape:snap-global="true"
     showguides="true"
     inkscape:guide-bbox="true"
     inkscape:snap-object-midpoints="false"
     inkscape:snap-bbox="true"
     inkscape:snap-bbox-edge-midpoints="false"
     inkscape:bbox-nodes="true">
    <sodipodi:guide
       position="140,93.360118"
       orientation="1,0"
       id="guide961"
       inkscape:locked="false"
       inkscape:label=""
       inkscape:color="rgb(0,0,255)" />
    <sodipodi:guide
       position="150,100.30107"
       orientation="1,0"
       id="guide963"
       inkscape:locked="false"
       inkscape:label=""
       inkscape:color="rgb(0,0,255)" />
    <sodipodi:guide
       position="150,90.08585"
       orientation="0,1"
       id="guide975"
       inkscape:locked="false" />
    <sodipodi:guide
       position="150,95.085853"
       orientation="0,1"
       id="guide977"
       inkscape:locked="false"
       inkscape:label=""
       inkscape:color="rgb(0,0,255)" />
  </sodipodi:namedview>
  <metadata
     id="metadata5">
    <rdf:RDF>
      <cc:Work
         rdf:about="">
        <dc:format>image/svg+xml</dc:format>
        <dc:type
           rdf:resource="http://purl.org/dc/dcmitype/StillImage" />
        <dc:title></dc:title>
      </cc:Work>
    </rdf:RDF>
  </metadata>
  <g
     inkscape:label="Layer 1"
     inkscape:groupmode="layer"
     id="layer1"
     transform="translate(0,-97)">
    <g
       id="g949"
       transform="matrix(0.74426841,0,0,0.74426841,34.799854,51.073912)"
       inkscape:export-xdpi="90"
       inkscape:export-ydpi="90">
      <circle
         r="40.308037"
         cy="196.06648"
         cx="101.03902"
         id="path815"
         style="fill:#1c2224;fill-opacity:1;stroke:none;stroke-width:0.40324494" />
      <circle
         style="fill:#374548;fill-opacity:1;stroke:none;stroke-width:0.39473701"
         id="circle823"
         cx="100.18857"
         cy="195.21603"
         r="39.457592" />
      <circle
         r="35.866817"
         cy="192.94818"
         cx="98.298683"
         id="circle825"
         style="fill:#435458;fill-opacity:1;stroke:none;stroke-width:0.3588146" />
      <path
         sodipodi:nodetypes="ccccccsccc"
         inkscape:connector-curvature="0"
         id="ellipse841"
         transform="matrix(0.26458333,0,0,0.26458333,0,97)"
         d="m 458.67674,384.51445 c -3.31532,3.31474 -10.45321,6.35529 -13.8408,9.61855 -92.84154,89.34271 -194.36368,137.95696 -219.70508,107.23809 -10.81686,-13.23548 -4.48282,-40.61225 13.81055,-75.04882 -0.44962,-1.1801 -0.88455,-2.36574 -1.30469,-3.55665 -25.53063,44.19287 -28.09188,76.2311 -12.63281,92.19141 26.86085,27.54487 109.72916,-6.41696 198.64411,-89.87445 3.26682,-3.06632 6.54181,-6.19944 9.82248,-9.39879 9.7019,-9.46558 11.79453,-12.35048 25.46081,-26.79381 -1.32472,-0.55229 0.62498,-3.26931 -0.25457,-4.37553 z"
         style="fill:#37abc8;fill-opacity:1;stroke:none;stroke-width:1.11110067" />
      <circle
         r="6.6253605"
         cy="183.84366"
         cx="83.549072"
         id="circle827"
         style="fill:#6f8a91;fill-opacity:1;stroke:none;stroke-width:0.06628067" />
      <circle
         style="fill:#374548;fill-opacity:1;stroke:none;stroke-width:0.05966338"
         id="circle817"
         cx="83.265594"
         cy="183.37119"
         r="5.963902" />
      <circle
         r="5.2957282"
         cy="182.90347"
         cx="82.864693"
         id="circle819"
         style="fill:#37abc8;fill-opacity:1;stroke:none;stroke-width:0.05297891" />
      <circle
         style="fill:#87cdde;fill-opacity:1;stroke:none;stroke-width:0.03998068"
         id="circle821"
         cx="83.786011"
         cy="181.93492"
         r="3.9964352" />
      <path
         inkscape:connector-curvature="0"
         style="fill:#cccccc;fill-opacity:1;stroke:none;stroke-width:0.18354377"
         d="m 130.53502,190.12329 c -0.97761,-1.00247 -3.21781,0.33064 -4.10549,1.19632 -0.0622,0.0607 -0.11253,0.12026 -0.1542,0.17824 -0.005,0.006 -0.0108,0.0106 -0.0173,0.0145 l -2.49205,2.43028 c -0.2813,0.27432 -0.41221,0.64213 -0.39438,1.0044 l -3.88537,3.7891 c -0.39834,-0.038 -0.80981,0.0926 -1.12004,0.39496 l -5.17841,5.0501 c -0.32634,0.3183 -0.46461,0.75345 -0.41642,1.17204 l -1.90764,1.13426 2.63795,2.76105 1.25661,-1.82705 c 0.42758,0.072 0.88183,-0.0538 1.21741,-0.38148 l 5.17843,-5.0501 c 0.31019,-0.30254 0.451,-0.71066 0.42293,-1.10979 l 3.83717,-3.74211 c 0.39425,0.062 0.81124,-0.0555 1.12023,-0.35656 l 2.49201,-2.4303 c 0.0228,-0.0223 0.0437,-0.0458 0.0642,-0.0691 0.0609,-0.0413 0.12332,-0.0916 0.18693,-0.15357 0.88769,-0.86569 2.26136,-2.94719 1.25668,-4.00544 z"
         id="path885" />
    </g>
    <g
       aria-label="ceres"
       transform="matrix(1.5924617,0,0,1.5924617,-865.85547,-267.10956)"
       style="font-style:normal;font-variant:normal;font-weight:normal;font-stretch:normal;font-size:42.14487076px;line-height:1.25;font-family:FreeMono;-inkscape-font-specification:'FreeMono, Normal';font-variant-ligatures:normal;font-variant-caps:normal;font-variant-numeric:normal;font-feature-settings:normal;text-align:start;letter-spacing:0px;word-spacing:0px;writing-mode:lr-tb;text-anchor:start;fill:#374548;fill-opacity:1;stroke:none"
       id="flowRoot951"
       inkscape:export-xdpi="90"
       inkscape:export-ydpi="90">
      <path
         d="m 656.92251,290.1444 q 0,0.3793 -0.71647,1.09576 -0.71646,0.67432 -1.89652,1.43293 -1.13791,0.75861 -3.03443,1.30649 -1.89652,0.54788 -3.87732,0.54788 -4.1302,0 -6.82747,-2.61298 -2.65513,-2.61298 -2.65513,-6.65889 0,-4.17234 2.73942,-6.86961 2.73941,-2.69727 6.9539,-2.69727 3.91947,0 6.5746,2.31796 v -0.54788 q 0,-1.18006 0.88504,-1.18006 0.8429,0 0.8429,1.18006 v 3.83518 q 0,1.13792 -0.8429,1.13792 -0.75861,0 -0.88504,-1.01148 -0.12644,-1.6858 -2.10724,-2.82371 -1.93867,-1.18005 -4.5938,-1.18005 -3.49802,0 -5.68955,2.19153 -2.14939,2.14939 -2.14939,5.60527 0,3.32944 2.19153,5.47883 2.19154,2.10724 5.64741,2.10724 4.5938,0 7.8811,-3.03443 0.42144,-0.42145 0.7586,-0.42145 0.33716,0 0.54789,0.25287 0.25287,0.21073 0.25287,0.54789 z"
         style="font-style:normal;font-variant:normal;font-weight:normal;font-stretch:normal;font-size:42.14487076px;font-family:FreeMono;-inkscape-font-specification:'FreeMono, Normal';font-variant-ligatures:normal;font-variant-caps:normal;font-variant-numeric:normal;font-feature-settings:normal;text-align:start;letter-spacing:-2.49221063px;writing-mode:lr-tb;text-anchor:start;fill:#374548;fill-opacity:1"
         id="path999" />
      <path
         d="m 679.08498,285.46632 h -17.53227 q 0.4636,3.32944 2.78157,5.3524 2.31796,1.9808 5.7317,1.9808 1.98081,0 4.04591,-0.63217 2.06509,-0.63217 3.32944,-1.64365 0.42145,-0.29501 0.67432,-0.29501 0.33716,0 0.54788,0.25287 0.25287,0.25287 0.25287,0.59002 0,1.09577 -3.03443,2.27583 -2.99229,1.18005 -5.85814,1.18005 -4.25663,0 -7.24891,-2.86585 -2.95015,-2.86585 -2.95015,-6.9539 0,-3.83518 2.78157,-6.40602 2.78156,-2.61298 6.82746,-2.61298 4.25664,0 6.95391,2.69727 2.69727,2.65513 2.69727,7.08034 z m -17.53227,-1.72794 h 15.76219 q -0.50574,-2.86585 -2.65513,-4.59379 -2.14939,-1.72794 -5.22597,-1.72794 -3.07657,0 -5.18381,1.72794 -2.10725,1.68579 -2.69728,4.59379 z"
         style="font-style:normal;font-variant:normal;font-weight:normal;font-stretch:normal;font-size:42.14487076px;font-family:FreeMono;-inkscape-font-specification:'FreeMono, Normal';font-variant-ligatures:normal;font-variant-caps:normal;font-variant-numeric:normal;font-feature-settings:normal;text-align:start;letter-spacing:-2.49221063px;writing-mode:lr-tb;text-anchor:start;fill:#374548;fill-opacity:1"
         id="path1001" />
      <path
         d="m 701.87963,279.35531 q -0.21073,0 -1.30649,-0.88504 -1.09577,-0.88504 -2.14939,-0.88504 -1.43293,0 -2.99229,1.01147 -1.51721,1.01148 -5.01524,4.21449 v 9.31402 h 7.54393 q 1.13792,0 1.13792,0.88504 0,0.8429 -1.13792,0.8429 h -13.31777 q -1.13792,0 -1.13792,-0.88505 0,-0.84289 1.13792,-0.84289 h 4.0459 v -14.11854 h -3.16086 q -1.13791,0 -1.13791,-0.88504 0,-0.8429 1.13791,-0.8429 h 4.8888 v 4.29878 q 2.908,-2.65513 4.72023,-3.6666 1.81223,-1.05362 3.41373,-1.05362 1.6858,0 2.95014,1.01147 1.26435,1.01148 1.26435,1.60151 0,0.3793 -0.25287,0.63217 -0.25287,0.25287 -0.63217,0.25287 z"
         style="font-style:normal;font-variant:normal;font-weight:normal;font-stretch:normal;font-size:42.14487076px;font-family:FreeMono;-inkscape-font-specification:'FreeMono, Normal';font-variant-ligatures:normal;font-variant-caps:normal;font-variant-numeric:normal;font-feature-settings:normal;text-align:start;letter-spacing:-2.49221063px;writing-mode:lr-tb;text-anchor:start;fill:#374548;fill-opacity:1"
         id="path1003" />
      <path
         d="m 724.67427,285.46632 h -17.53226 q 0.46359,3.32944 2.78156,5.3524 2.31797,1.9808 5.7317,1.9808 1.98081,0 4.04591,-0.63217 2.0651,-0.63217 3.32944,-1.64365 0.42145,-0.29501 0.67432,-0.29501 0.33716,0 0.54789,0.25287 0.25286,0.25287 0.25286,0.59002 0,1.09577 -3.03443,2.27583 -2.99228,1.18005 -5.85813,1.18005 -4.25663,0 -7.24892,-2.86585 -2.95014,-2.86585 -2.95014,-6.9539 0,-3.83518 2.78156,-6.40602 2.78156,-2.61298 6.82747,-2.61298 4.25663,0 6.9539,2.69727 2.69727,2.65513 2.69727,7.08034 z m -17.53226,-1.72794 h 15.76218 q -0.50574,-2.86585 -2.65513,-4.59379 -2.14939,-1.72794 -5.22596,-1.72794 -3.07658,0 -5.18382,1.72794 -2.10724,1.68579 -2.69727,4.59379 z"
         style="font-style:normal;font-variant:normal;font-weight:normal;font-stretch:normal;font-size:42.14487076px;font-family:FreeMono;-inkscape-font-specification:'FreeMono, Normal';font-variant-ligatures:normal;font-variant-caps:normal;font-variant-numeric:normal;font-feature-settings:normal;text-align:start;letter-spacing:-2.49221063px;writing-mode:lr-tb;text-anchor:start;fill:#374548;fill-opacity:1"
         id="path1005" />
      <path
         d="m 744.60307,288.9222 q 0,-1.55936 -1.43293,-2.40226 -1.43292,-0.8429 -3.45587,-1.13791 -2.02296,-0.29502 -4.04591,-0.63218 -2.02296,-0.33715 -3.45588,-1.39078 -1.43293,-1.05362 -1.43293,-2.90799 0,-2.0651 2.02296,-3.41374 2.0651,-1.34863 5.18382,-1.34863 3.58231,0 5.77384,1.93866 v -0.16858 q 0,-1.18006 0.88505,-1.18006 0.84289,0 0.84289,1.18006 v 2.908 q 0,1.13791 -0.84289,1.13791 -0.75861,0 -0.88505,-0.96933 -0.16858,-1.43293 -1.68579,-2.27583 -1.51722,-0.84289 -3.91947,-0.84289 -2.36012,0 -3.91948,0.92718 -1.55936,0.88505 -1.55936,2.23368 0,1.26435 1.43293,1.93867 1.43292,0.67431 3.45588,0.96933 2.02295,0.25287 4.0459,0.67432 2.02296,0.3793 3.45588,1.6015 1.43293,1.18006 1.43293,3.20301 0,2.40226 -2.36011,4.00376 -2.31797,1.55936 -5.90029,1.55936 -4.0459,0 -6.61674,-2.27582 v 0.46359 q 0,1.13792 -0.8429,1.13792 -0.88504,0 -0.88504,-1.13792 v -3.49802 q 0,-1.13791 0.88504,-1.13791 0.8429,0 0.8429,0.92719 v 0.29501 q 0,1.43293 1.89652,2.48655 1.89652,1.01147 4.59379,1.01147 2.78156,0 4.63594,-1.09576 1.85437,-1.09577 1.85437,-2.78156 z"
         style="font-style:normal;font-variant:normal;font-weight:normal;font-stretch:normal;font-size:42.14487076px;font-family:FreeMono;-inkscape-font-specification:'FreeMono, Normal';font-variant-ligatures:normal;font-variant-caps:normal;font-variant-numeric:normal;font-feature-settings:normal;text-align:start;letter-spacing:-2.49221063px;writing-mode:lr-tb;text-anchor:start;fill:#374548;fill-opacity:1"
         id="path1007" />
    </g>
    <g
       aria-label="The S3MC language "
       transform="matrix(1.328483,0,0,1.328483,-694.11253,-171.82466)"
       style="font-style:normal;font-variant:normal;font-weight:normal;font-stretch:normal;font-size:42.14487076px;line-height:1.25;font-family:FreeMono;-inkscape-font-specification:'FreeMono, Normal';font-variant-ligatures:normal;font-variant-caps:normal;font-variant-numeric:normal;font-feature-settings:normal;text-align:start;letter-spacing:0px;word-spacing:0px;writing-mode:lr-tb;text-anchor:start;fill:#374548;fill-opacity:1;stroke:none"
       id="flowRoot973"
       inkscape:export-xdpi="90"
       inkscape:export-ydpi="90">
      <path
         d="m 638.92611,293.27185 h 1.48868 q 0.3828,0 0.3828,0.28356 0,0.29774 -0.3828,0.29774 h -3.55866 q -0.3828,0 -0.3828,-0.29774 0,-0.28356 0.3828,-0.28356 h 1.48868 v -6.81957 h -2.36771 v 1.03498 q 0,0.38281 -0.29773,0.38281 -0.28356,0 -0.28356,-0.38281 v -1.61628 h 6.46513 v 1.61628 q 0,0.38281 -0.28356,0.38281 -0.1276,0 -0.21267,-0.0992 -0.0851,-0.11342 -0.0851,-0.28356 v -1.03498 h -2.35353 z"
         style="font-style:normal;font-variant:normal;font-weight:normal;font-stretch:normal;font-size:14.17790985px;font-family:FreeMono;-inkscape-font-specification:'FreeMono, Normal';font-variant-ligatures:normal;font-variant-caps:normal;font-variant-numeric:normal;font-feature-settings:normal;text-align:start;letter-spacing:-0.83648044px;writing-mode:lr-tb;text-anchor:start;fill:#374548;fill-opacity:1"
         id="path1010" />
      <path
         d="m 648.24099,289.76991 q 0,-0.63801 -0.48205,-1.03499 -0.48205,-0.41116 -1.26183,-0.41116 -0.59547,0 -0.99246,0.24103 -0.3828,0.22684 -0.96409,0.90738 l -0.15596,0.18431 v 3.61537 h 0.638 q 0.39699,0 0.39699,0.28356 0,0.29774 -0.39699,0.29774 h -1.87148 q -0.3828,0 -0.3828,-0.29774 0,-0.28356 0.3828,-0.28356 h 0.65218 v -7.40087 h -0.7656 q -0.38281,0 -0.38281,-0.29773 0,-0.28356 0.38281,-0.28356 h 1.3469 v 3.64372 q 0.53876,-0.65218 1.03499,-0.92156 0.49622,-0.26938 1.14841,-0.26938 0.99245,0 1.61628,0.56711 0.638,0.55294 0.638,1.41779 v 3.54448 h 0.63801 q 0.39698,0 0.39698,0.28356 0,0.29774 -0.39698,0.29774 h -1.85731 q -0.3828,0 -0.3828,-0.29774 0,-0.28356 0.3828,-0.28356 h 0.63801 z"
         style="font-style:normal;font-variant:normal;font-weight:normal;font-stretch:normal;font-size:14.17790985px;font-family:FreeMono;-inkscape-font-specification:'FreeMono, Normal';font-variant-ligatures:normal;font-variant-caps:normal;font-variant-numeric:normal;font-feature-settings:normal;text-align:start;letter-spacing:-0.83648044px;writing-mode:lr-tb;text-anchor:start;fill:#374548;fill-opacity:1"
         id="path1012" />
      <path
         d="m 657.088,291.03174 h -5.89801 q 0.15596,1.12006 0.93574,1.8006 0.77979,0.66636 1.9282,0.66636 0.66636,0 1.36108,-0.21267 0.69471,-0.21267 1.12005,-0.55294 0.14178,-0.0992 0.22685,-0.0992 0.11342,0 0.18431,0.0851 0.0851,0.0851 0.0851,0.19849 0,0.36863 -1.02081,0.76561 -1.00663,0.39698 -1.97073,0.39698 -1.43197,0 -2.4386,-0.9641 -0.99245,-0.96409 -0.99245,-2.33935 0,-1.29019 0.93574,-2.15504 0.93574,-0.87903 2.29682,-0.87903 1.43197,0 2.33935,0.90738 0.90739,0.89321 0.90739,2.38189 z m -5.89801,-0.58129 h 5.30254 q -0.17014,-0.9641 -0.89321,-1.54539 -0.72307,-0.5813 -1.75806,-0.5813 -1.03499,0 -1.74388,0.5813 -0.7089,0.56711 -0.90739,1.54539 z"
         style="font-style:normal;font-variant:normal;font-weight:normal;font-stretch:normal;font-size:14.17790985px;font-family:FreeMono;-inkscape-font-specification:'FreeMono, Normal';font-variant-ligatures:normal;font-variant-caps:normal;font-variant-numeric:normal;font-feature-settings:normal;text-align:start;letter-spacing:-0.83648044px;writing-mode:lr-tb;text-anchor:start;fill:#374548;fill-opacity:1"
         id="path1014" />
      <path
         d="m 671.63453,291.68393 q 0,-0.59548 -0.36863,-0.9641 -0.36863,-0.36863 -0.92156,-0.48205 -0.53877,-0.1276 -1.19095,-0.26938 -0.63801,-0.15596 -1.19094,-0.31192 -0.53876,-0.17013 -0.90739,-0.60965 -0.36863,-0.45369 -0.36863,-1.16258 0,-0.93575 0.73726,-1.55957 0.75143,-0.63801 1.87148,-0.63801 1.2193,0 2.06997,0.8365 v -0.26938 q 0,-0.38281 0.29774,-0.38281 0.28356,0 0.28356,0.38281 v 1.46032 q 0,0.3828 -0.28356,0.3828 -0.28356,0 -0.29774,-0.34027 -0.0425,-0.638 -0.62382,-1.06334 -0.5813,-0.42534 -1.40362,-0.42534 -0.87903,0 -1.46032,0.46788 -0.56712,0.46787 -0.56712,1.16258 0,0.55294 0.36863,0.89321 0.36862,0.34027 0.90738,0.46787 0.55294,0.11343 1.19095,0.28356 0.65218,0.15596 1.19094,0.32609 0.55294,0.17014 0.92157,0.65219 0.36862,0.46787 0.36862,1.19094 0,1.03499 -0.82232,1.70135 -0.82231,0.66636 -2.09833,0.66636 -1.50285,0 -2.39606,-1.02081 v 0.41116 q 0,0.38281 -0.29774,0.38281 -0.28356,0 -0.28356,-0.38281 v -1.58792 q 0,-0.38281 0.29774,-0.38281 0.26938,0 0.28356,0.34027 0.0284,0.69472 0.72307,1.17677 0.69472,0.48205 1.65882,0.48205 0.99245,0 1.64463,-0.51041 0.66637,-0.52458 0.66637,-1.30436 z"
         style="font-style:normal;font-variant:normal;font-weight:normal;font-stretch:normal;font-size:14.17790985px;font-family:FreeMono;-inkscape-font-specification:'FreeMono, Normal';font-variant-ligatures:normal;font-variant-caps:normal;font-variant-numeric:normal;font-feature-settings:normal;text-align:start;letter-spacing:-0.83648044px;writing-mode:lr-tb;text-anchor:start;fill:#374548;fill-opacity:1"
         id="path1016" />
      <path
         d="m 674.49846,286.36721 q 0,-0.15596 0.26938,-0.43952 0.28356,-0.28355 0.89321,-0.55293 0.60965,-0.28356 1.33272,-0.28356 1.06334,0 1.77224,0.638 0.72307,0.62383 0.72307,1.5454 0,0.82231 -0.46787,1.30436 -0.45369,0.48205 -0.99245,0.62383 0.83649,0.34027 1.30437,0.94992 0.46787,0.59547 0.46787,1.31855 0,1.07752 -0.87903,1.84313 -0.86486,0.75142 -2.08416,0.75142 -0.83649,0 -1.80059,-0.41115 -0.94992,-0.42534 -0.94992,-0.77979 0,-0.0992 0.0851,-0.18431 0.0851,-0.0851 0.18431,-0.0851 0.0992,0 0.39698,0.22685 0.29774,0.21267 0.85067,0.43951 0.55294,0.21267 1.24766,0.21267 0.9641,0 1.65882,-0.59547 0.70889,-0.59547 0.70889,-1.41779 0,-0.8365 -0.75143,-1.43197 -0.75143,-0.60965 -1.78641,-0.60965 -0.38281,0 -0.38281,-0.29774 0,-0.28356 0.38281,-0.28356 2.22593,0 2.22593,-1.55957 0,-0.69471 -0.55294,-1.14841 -0.55294,-0.46787 -1.37526,-0.46787 -0.59547,0 -1.02081,0.15596 -0.41116,0.14178 -0.58129,0.32609 -0.15596,0.18431 -0.31192,0.34027 -0.15595,0.14178 -0.28355,0.14178 -0.11343,0 -0.19849,-0.0709 -0.0851,-0.0851 -0.0851,-0.19849 z"
         style="font-style:normal;font-variant:normal;font-weight:normal;font-stretch:normal;font-size:14.17790985px;font-family:FreeMono;-inkscape-font-specification:'FreeMono, Normal';font-variant-ligatures:normal;font-variant-caps:normal;font-variant-numeric:normal;font-feature-settings:normal;text-align:start;letter-spacing:-0.83648044px;writing-mode:lr-tb;text-anchor:start;fill:#374548;fill-opacity:1"
         id="path1018" />
      <path
         d="m 685.01846,291.45708 h -0.65218 l -2.25429,-5.0048 h -0.11342 v 6.81957 h 1.04916 q 0.39699,0 0.39699,0.28356 0,0.29774 -0.39699,0.29774 h -2.1125 q -0.38281,0 -0.38281,-0.29774 0,-0.28356 0.38281,-0.28356 h 0.48204 v -6.81957 h -0.35444 q -0.38281,0 -0.38281,-0.29774 0,-0.28356 0.38281,-0.28356 h 1.40361 l 2.22593,4.93392 2.1834,-4.93392 h 1.41779 q 0.3828,0 0.3828,0.28356 0,0.29774 -0.3828,0.29774 h -0.35445 v 6.81957 h 0.48205 q 0.38281,0 0.38281,0.28356 0,0.29774 -0.38281,0.29774 h -2.11251 q -0.3828,0 -0.3828,-0.29774 0,-0.28356 0.3828,-0.28356 h 1.04917 v -6.81957 h -0.11342 z"
         style="font-style:normal;font-variant:normal;font-weight:normal;font-stretch:normal;font-size:14.17790985px;font-family:FreeMono;-inkscape-font-specification:'FreeMono, Normal';font-variant-ligatures:normal;font-variant-caps:normal;font-variant-numeric:normal;font-feature-settings:normal;text-align:start;letter-spacing:-0.83648044px;writing-mode:lr-tb;text-anchor:start;fill:#374548;fill-opacity:1"
         id="path1020" />
      <path
         d="m 688.95992,289.24533 q 0,-0.26938 0.0709,-0.65219 0.0851,-0.39698 0.32609,-0.92156 0.24102,-0.52459 0.59547,-0.94992 0.35445,-0.42534 0.99245,-0.72308 0.63801,-0.31191 1.44615,-0.31191 1.43197,0 2.45278,0.97828 v -0.41116 q 0,-0.38281 0.29773,-0.38281 0.28356,0 0.28356,0.38281 v 1.58792 q 0,0.38281 -0.29773,0.38281 -0.25521,0 -0.28356,-0.34027 -0.0425,-0.65219 -0.77979,-1.13424 -0.72307,-0.48205 -1.67299,-0.48205 -1.17677,0 -2.01326,0.90739 -0.8365,0.89321 -0.8365,2.15504 v 1.00663 q 0,1.27602 0.92156,2.22594 0.92157,0.93574 2.16922,0.93574 0.73726,0 1.31855,-0.29774 0.58129,-0.29773 1.14841,-0.97827 0.1276,-0.14178 0.2552,-0.14178 0.28356,0 0.28356,0.26938 0,0.1276 -0.22685,0.39698 -0.22684,0.26938 -0.59547,0.58129 -0.36862,0.29774 -0.9641,0.52459 -0.59547,0.22684 -1.2193,0.22684 -1.44614,0 -2.5662,-1.10587 -1.10587,-1.12006 -1.10587,-2.55203 z"
         style="font-style:normal;font-variant:normal;font-weight:normal;font-stretch:normal;font-size:14.17790985px;font-family:FreeMono;-inkscape-font-specification:'FreeMono, Normal';font-variant-ligatures:normal;font-variant-caps:normal;font-variant-numeric:normal;font-feature-settings:normal;text-align:start;letter-spacing:-0.83648044px;writing-mode:lr-tb;text-anchor:start;fill:#374548;fill-opacity:1"
         id="path1022" />
      <path
         d="m 707.94413,285.28969 v 7.98216 h 2.26846 q 0.39698,0 0.39698,0.28356 0,0.29774 -0.39698,0.29774 h -5.11822 q -0.38281,0 -0.38281,-0.29774 0,-0.28356 0.38281,-0.28356 h 2.26846 v -7.40087 h -1.65881 q -0.38281,0 -0.38281,-0.29773 0,-0.28356 0.38281,-0.28356 z"
         style="font-style:normal;font-variant:normal;font-weight:normal;font-stretch:normal;font-size:14.17790985px;font-family:FreeMono;-inkscape-font-specification:'FreeMono, Normal';font-variant-ligatures:normal;font-variant-caps:normal;font-variant-numeric:normal;font-feature-settings:normal;text-align:start;letter-spacing:-0.83648044px;writing-mode:lr-tb;text-anchor:start;fill:#374548;fill-opacity:1"
         id="path1024" />
      <path
         d="m 712.84968,288.4939 q 0,-0.31192 0.96409,-0.52459 0.9641,-0.22684 1.50286,-0.22684 0.99246,0 1.63046,0.49622 0.65219,0.49623 0.65219,1.24766 v 3.7855 h 0.7656 q 0.38281,0 0.38281,0.28356 0,0.29774 -0.38281,0.29774 h -1.3469 v -0.94992 q -1.26183,1.17676 -2.70798,1.17676 -0.99245,0 -1.6021,-0.49622 -0.60965,-0.51041 -0.60965,-1.31855 0,-0.92156 0.82232,-1.48868 0.83649,-0.58129 2.16922,-0.58129 0.83649,0 1.92819,0.29773 v -1.00663 q 0,-0.52458 -0.48205,-0.8365 -0.48205,-0.32609 -1.26183,-0.32609 -0.65218,0 -1.3469,0.22685 -0.69472,0.22684 -0.80814,0.22684 -0.11343,0 -0.19849,-0.0851 -0.0709,-0.0851 -0.0709,-0.19849 z m 4.1683,3.77132 v -1.27601 q -0.85067,-0.21267 -1.81477,-0.21267 -1.12005,0 -1.82895,0.42534 -0.69472,0.41116 -0.69472,1.07752 0,0.55294 0.43952,0.89321 0.43951,0.32609 1.17676,0.32609 0.75143,0 1.37526,-0.28356 0.63801,-0.28356 1.3469,-0.94992 z"
         style="font-style:normal;font-variant:normal;font-weight:normal;font-stretch:normal;font-size:14.17790985px;font-family:FreeMono;-inkscape-font-specification:'FreeMono, Normal';font-variant-ligatures:normal;font-variant-caps:normal;font-variant-numeric:normal;font-feature-settings:normal;text-align:start;letter-spacing:-0.83648044px;writing-mode:lr-tb;text-anchor:start;fill:#374548;fill-opacity:1"
         id="path1026" />
      <path
         d="m 723.27043,288.32376 q -0.2552,0 -0.49622,0.0567 -0.22685,0.0425 -0.43952,0.15596 -0.19849,0.0992 -0.34027,0.19849 -0.14178,0.0851 -0.31191,0.2552 -0.15596,0.17014 -0.22685,0.25521 -0.0567,0.0709 -0.19849,0.2552 -0.1276,0.17013 -0.14178,0.18431 v 3.58701 h 0.63801 q 0.3828,0 0.3828,0.28356 0,0.29774 -0.3828,0.29774 h -1.85731 q -0.39698,0 -0.39698,-0.29774 0,-0.28356 0.39698,-0.28356 h 0.63801 v -4.7496 h -0.48205 q -0.38281,0 -0.38281,-0.29773 0,-0.28356 0.38281,-0.28356 h 1.06334 v 0.97827 q 0.60965,-0.68054 1.07752,-0.92156 0.46787,-0.2552 1.13424,-0.2552 0.94992,0 1.58792,0.55294 0.63801,0.55293 0.63801,1.37525 v 3.60119 h 0.48205 q 0.3828,0 0.3828,0.28356 0,0.29774 -0.3828,0.29774 h -1.5454 q -0.3828,0 -0.3828,-0.29774 0,-0.28356 0.3828,-0.28356 h 0.48205 v -3.50194 q 0,-0.60965 -0.46787,-1.02081 -0.45369,-0.42534 -1.23348,-0.42534 z"
         style="font-style:normal;font-variant:normal;font-weight:normal;font-stretch:normal;font-size:14.17790985px;font-family:FreeMono;-inkscape-font-specification:'FreeMono, Normal';font-variant-ligatures:normal;font-variant-caps:normal;font-variant-numeric:normal;font-feature-settings:normal;text-align:start;letter-spacing:-0.83648044px;writing-mode:lr-tb;text-anchor:start;fill:#374548;fill-opacity:1"
         id="path1028" />
      <path
         d="m 732.65621,289.11772 v -1.17676 h 1.3469 q 0.38281,0 0.38281,0.28356 0,0.29773 -0.38281,0.29773 h -0.7656 v 5.72788 q 0,0.90738 -0.68054,1.57375 -0.68054,0.66636 -1.65882,0.66636 h -1.61628 q -0.38281,0 -0.38281,-0.29774 0,-0.28356 0.38281,-0.28356 h 1.64464 q 0.72307,0 1.2193,-0.5104 0.5104,-0.51041 0.5104,-1.23348 v -1.82895 q -0.93574,1.37526 -2.42442,1.37526 -1.20512,0 -2.06998,-0.87903 -0.85067,-0.87903 -0.85067,-2.11251 0,-1.23348 0.85067,-2.09833 0.86486,-0.87903 2.06998,-0.87903 1.50286,0 2.42442,1.37525 z m -2.38189,-0.79396 q -0.99245,0 -1.68717,0.69472 -0.69472,0.69472 -0.69472,1.70135 0,1.00663 0.69472,1.71553 0.69472,0.69471 1.68717,0.69471 0.99246,0 1.68717,-0.69471 0.69472,-0.69472 0.69472,-1.68718 0,-1.03498 -0.69472,-1.7297 -0.68054,-0.69472 -1.68717,-0.69472 z"
         style="font-style:normal;font-variant:normal;font-weight:normal;font-stretch:normal;font-size:14.17790985px;font-family:FreeMono;-inkscape-font-specification:'FreeMono, Normal';font-variant-ligatures:normal;font-variant-caps:normal;font-variant-numeric:normal;font-feature-settings:normal;text-align:start;letter-spacing:-0.83648044px;writing-mode:lr-tb;text-anchor:start;fill:#374548;fill-opacity:1"
         id="path1030" />
      <path
         d="m 740.31228,293.85315 v -0.93575 q -1.19095,1.16259 -2.58038,1.16259 -0.85068,0 -1.37526,-0.5104 -0.51041,-0.51041 -0.51041,-1.3469 v -3.70044 h -0.7656 q -0.38281,0 -0.38281,-0.29773 0,-0.28356 0.38281,-0.28356 h 1.3469 v 4.28173 q 0,0.53876 0.36862,0.90738 0.38281,0.36863 0.92157,0.36863 1.41779,0 2.59456,-1.27601 v -3.70044 h -1.04917 q -0.39698,0 -0.39698,-0.29773 0,-0.28356 0.39698,-0.28356 h 1.63046 v 5.33089 h 0.48205 q 0.3828,0 0.3828,0.28356 0,0.29774 -0.3828,0.29774 z"
         style="font-style:normal;font-variant:normal;font-weight:normal;font-stretch:normal;font-size:14.17790985px;font-family:FreeMono;-inkscape-font-specification:'FreeMono, Normal';font-variant-ligatures:normal;font-variant-caps:normal;font-variant-numeric:normal;font-feature-settings:normal;text-align:start;letter-spacing:-0.83648044px;writing-mode:lr-tb;text-anchor:start;fill:#374548;fill-opacity:1"
         id="path1032" />
      <path
         d="m 743.53065,288.4939 q 0,-0.31192 0.9641,-0.52459 0.9641,-0.22684 1.50286,-0.22684 0.99245,0 1.63046,0.49622 0.65218,0.49623 0.65218,1.24766 v 3.7855 h 0.76561 q 0.3828,0 0.3828,0.28356 0,0.29774 -0.3828,0.29774 h -1.3469 v -0.94992 q -1.26183,1.17676 -2.70798,1.17676 -0.99246,0 -1.60211,-0.49622 -0.60965,-0.51041 -0.60965,-1.31855 0,-0.92156 0.82232,-1.48868 0.8365,-0.58129 2.16922,-0.58129 0.8365,0 1.9282,0.29773 v -1.00663 q 0,-0.52458 -0.48205,-0.8365 -0.48205,-0.32609 -1.26183,-0.32609 -0.65219,0 -1.3469,0.22685 -0.69472,0.22684 -0.80815,0.22684 -0.11342,0 -0.19849,-0.0851 -0.0709,-0.0851 -0.0709,-0.19849 z m 4.16831,3.77132 v -1.27601 q -0.85068,-0.21267 -1.81477,-0.21267 -1.12006,0 -1.82895,0.42534 -0.69472,0.41116 -0.69472,1.07752 0,0.55294 0.43951,0.89321 0.43952,0.32609 1.17677,0.32609 0.75143,0 1.37526,-0.28356 0.638,-0.28356 1.3469,-0.94992 z"
         style="font-style:normal;font-variant:normal;font-weight:normal;font-stretch:normal;font-size:14.17790985px;font-family:FreeMono;-inkscape-font-specification:'FreeMono, Normal';font-variant-ligatures:normal;font-variant-caps:normal;font-variant-numeric:normal;font-feature-settings:normal;text-align:start;letter-spacing:-0.83648044px;writing-mode:lr-tb;text-anchor:start;fill:#374548;fill-opacity:1"
         id="path1034" />
      <path
         d="m 755.66694,289.11772 v -1.17676 h 1.3469 q 0.3828,0 0.3828,0.28356 0,0.29773 -0.3828,0.29773 h -0.76561 v 5.72788 q 0,0.90738 -0.68054,1.57375 -0.68054,0.66636 -1.65881,0.66636 h -1.61628 q -0.38281,0 -0.38281,-0.29774 0,-0.28356 0.38281,-0.28356 h 1.64463 q 0.72308,0 1.2193,-0.5104 0.51041,-0.51041 0.51041,-1.23348 v -1.82895 q -0.93574,1.37526 -2.42442,1.37526 -1.20513,0 -2.06998,-0.87903 -0.85067,-0.87903 -0.85067,-2.11251 0,-1.23348 0.85067,-2.09833 0.86485,-0.87903 2.06998,-0.87903 1.50285,0 2.42442,1.37525 z m -2.38189,-0.79396 q -0.99245,0 -1.68717,0.69472 -0.69472,0.69472 -0.69472,1.70135 0,1.00663 0.69472,1.71553 0.69472,0.69471 1.68717,0.69471 0.99245,0 1.68717,-0.69471 0.69472,-0.69472 0.69472,-1.68718 0,-1.03498 -0.69472,-1.7297 -0.68054,-0.69472 -1.68717,-0.69472 z"
         style="font-style:normal;font-variant:normal;font-weight:normal;font-stretch:normal;font-size:14.17790985px;font-family:FreeMono;-inkscape-font-specification:'FreeMono, Normal';font-variant-ligatures:normal;font-variant-caps:normal;font-variant-numeric:normal;font-feature-settings:normal;text-align:start;letter-spacing:-0.83648044px;writing-mode:lr-tb;text-anchor:start;fill:#374548;fill-opacity:1"
         id="path1036" />
      <path
         d="m 764.47141,291.03174 h -5.89801 q 0.15596,1.12006 0.93574,1.8006 0.77979,0.66636 1.9282,0.66636 0.66636,0 1.36108,-0.21267 0.69472,-0.21267 1.12005,-0.55294 0.14178,-0.0992 0.22685,-0.0992 0.11342,0 0.18431,0.0851 0.0851,0.0851 0.0851,0.19849 0,0.36863 -1.02081,0.76561 -1.00663,0.39698 -1.97073,0.39698 -1.43197,0 -2.4386,-0.9641 -0.99245,-0.96409 -0.99245,-2.33935 0,-1.29019 0.93574,-2.15504 0.93574,-0.87903 2.29682,-0.87903 1.43197,0 2.33936,0.90738 0.90738,0.89321 0.90738,2.38189 z m -5.89801,-0.58129 h 5.30254 q -0.17013,-0.9641 -0.89321,-1.54539 -0.72307,-0.5813 -1.75806,-0.5813 -1.03499,0 -1.74388,0.5813 -0.7089,0.56711 -0.90739,1.54539 z"
         style="font-style:normal;font-variant:normal;font-weight:normal;font-stretch:normal;font-size:14.17790985px;font-family:FreeMono;-inkscape-font-specification:'FreeMono, Normal';font-variant-ligatures:normal;font-variant-caps:normal;font-variant-numeric:normal;font-feature-settings:normal;text-align:start;letter-spacing:-0.83648044px;writing-mode:lr-tb;text-anchor:start;fill:#374548;fill-opacity:1"
         id="path1038" />
    </g>
  </g>
</svg>
