<?xml version="1.0" encoding="UTF-8" standalone="no"?>
<!-- Created with Inkscape (http://www.inkscape.org/) -->

<svg
   xmlns:dc="http://purl.org/dc/elements/1.1/"
   xmlns:cc="http://creativecommons.org/ns#"
   xmlns:rdf="http://www.w3.org/1999/02/22-rdf-syntax-ns#"
   xmlns:svg="http://www.w3.org/2000/svg"
   xmlns="http://www.w3.org/2000/svg"
   xmlns:sodipodi="http://sodipodi.sourceforge.net/DTD/sodipodi-0.dtd"
   xmlns:inkscape="http://www.inkscape.org/namespaces/inkscape"
   width="200mm"
   height="200mm"
   viewBox="0 0 200 200"
   version="1.1"
   id="svg8"
   inkscape:version="0.92.5 (2060ec1f9f, 2020-04-08)"
   sodipodi:docname="s3mc.svg"
   inkscape:export-filename="/home/ale/Documents/GIT/ceres-lang/assets/s3mc.png"
   inkscape:export-xdpi="90"
   inkscape:export-ydpi="90">
  <defs
     id="defs2" />
  <sodipodi:namedview
     id="base"
     pagecolor="#ffffff"
     bordercolor="#666666"
     borderopacity="1.0"
     inkscape:pageopacity="0.0"
     inkscape:pageshadow="2"
     inkscape:zoom="0.5"
     inkscape:cx="163.05086"
     inkscape:cy="321.28561"
     inkscape:document-units="mm"
     inkscape:current-layer="layer1"
     showgrid="false"
     showguides="false"
     inkscape:guide-bbox="true"
     inkscape:snap-bbox="true"
     inkscape:bbox-nodes="true"
     inkscape:snap-global="true"
     inkscape:snap-bbox-edge-midpoints="false"
     inkscape:window-width="1366"
     inkscape:window-height="720"
     inkscape:window-x="0"
     inkscape:window-y="24"
     inkscape:window-maximized="1">
    <sodipodi:guide
       position="140,140"
       orientation="0,1"
       id="guide884"
       inkscape:locked="false" />
    <sodipodi:guide
       position="140,60.000001"
       orientation="0,1"
       id="guide886"
       inkscape:locked="false" />
    <sodipodi:guide
       position="60,140"
       orientation="1,0"
       id="guide888"
       inkscape:locked="false" />
    <sodipodi:guide
       position="140,140"
       orientation="1,0"
       id="guide890"
       inkscape:locked="false" />
    <sodipodi:guide
       position="65.999999,122.94398"
       orientation="1,0"
       id="guide892"
       inkscape:locked="false"
       inkscape:label=""
       inkscape:color="rgb(0,0,255)" />
    <sodipodi:guide
       position="134,89.000752"
       orientation="1,0"
       id="guide894"
       inkscape:locked="false"
       inkscape:label=""
       inkscape:color="rgb(0,0,255)" />
    <sodipodi:guide
       position="117.33132,134"
       orientation="0,1"
       id="guide896"
       inkscape:locked="false"
       inkscape:label=""
       inkscape:color="rgb(0,0,255)" />
    <sodipodi:guide
       position="92.87616,65.999999"
       orientation="0,1"
       id="guide898"
       inkscape:locked="false"
       inkscape:label=""
       inkscape:color="rgb(0,0,255)" />
    <sodipodi:guide
       position="114.31118,105.7051"
       orientation="1,0"
       id="guide936"
       inkscape:locked="false" />
    <sodipodi:guide
       position="74.999999,69.999999"
       orientation="0,1"
       id="guide938"
       inkscape:locked="false" />
    <sodipodi:guide
       position="125,89.036108"
       orientation="1,0"
       id="guide940"
       inkscape:locked="false" />
    <sodipodi:guide
       position="76.519265,150"
       orientation="0,1"
       id="guide942"
       inkscape:locked="false"
       inkscape:label=""
       inkscape:color="rgb(0,0,255)" />
    <sodipodi:guide
       position="50,121.98181"
       orientation="1,0"
       id="guide944"
       inkscape:locked="false"
       inkscape:label=""
       inkscape:color="rgb(0,0,255)" />
    <sodipodi:guide
       position="86.809142,50"
       orientation="0,1"
       id="guide965"
       inkscape:locked="false"
       inkscape:label=""
       inkscape:color="rgb(0,0,255)" />
    <sodipodi:guide
       position="150,91.860536"
       orientation="1,0"
       id="guide967"
       inkscape:locked="false"
       inkscape:label=""
       inkscape:color="rgb(0,0,255)" />
  </sodipodi:namedview>
  <metadata
     id="metadata5">
    <rdf:RDF>
      <cc:Work
         rdf:about="">
        <dc:format>image/svg+xml</dc:format>
        <dc:type
           rdf:resource="http://purl.org/dc/dcmitype/StillImage" />
        <dc:title></dc:title>
      </cc:Work>
    </rdf:RDF>
  </metadata>
  <g
     inkscape:label="Layer 1"
     inkscape:groupmode="layer"
     id="layer1"
     transform="translate(0,-97)">
    <path
       style="fill:#141414;fill-opacity:1;stroke:none;stroke-width:0.22971664"
       d="m 60,163 6,-6 68,0 6,6 0,68 -6,6 -68,0 -6,-6 z"
       id="rect882"
       inkscape:connector-curvature="0"
       sodipodi:nodetypes="ccccccccc" />
    <path
       sodipodi:nodetypes="ccccccccc"
       inkscape:connector-curvature="0"
       id="path901"
       d="m 61.889885,164.6064 5.700001,-5.71652 h 64.600004 l 5.69999,5.71652 v 64.7872 l -5.69999,5.71652 H 67.589886 l -5.700001,-5.71652 z"
       style="fill:#1e1e1e;fill-opacity:1;stroke:none;stroke-width:0.21854679" />
    <path
       style="fill:#282828;fill-opacity:1;stroke:none;stroke-width:0.21248789"
       d="m 62.999999,165.55 5.55,-5.55 H 131.45 l 5.55,5.55 v 62.9 L 131.45,234 H 68.549999 l -5.55,-5.55 z"
       id="path903"
       inkscape:connector-curvature="0"
       sodipodi:nodetypes="ccccccccc" />
    <circle
       style="fill:#141414;fill-opacity:1;stroke:none;stroke-width:0.26923075"
       id="path905"
       cx="75"
       cy="222"
       r="5" />
    <g
       aria-label="S3MC"
       transform="matrix(0.48210923,0,0,0.48210923,-216.25612,-22.339629)"
       style="font-style:normal;font-variant:normal;font-weight:bold;font-stretch:normal;font-size:40px;line-height:1.25;font-family:'Liberation Serif';-inkscape-font-specification:'Liberation Serif, Bold';font-variant-ligatures:normal;font-variant-caps:normal;font-variant-numeric:normal;font-feature-settings:normal;text-align:start;letter-spacing:0px;word-spacing:0px;writing-mode:lr-tb;text-anchor:start;fill:#b3b3b3;fill-opacity:1;stroke:none"
       id="flowRoot907">
      <path
         d="m 604.12891,477.21242 h 1.71875 l 0.8789,4.19922 q 0.82031,0.95703 2.48047,1.60156 1.66016,0.64453 3.4375,0.64453 5.60547,0 5.60547,-4.60937 0,-1.44531 -1.07422,-2.44141 -1.05469,-0.99609 -3.33984,-1.77734 -3.35938,-1.11328 -4.84375,-1.79688 -1.46485,-0.70312 -2.48047,-1.64062 -1.01563,-0.9375 -1.6211,-2.26563 -0.60546,-1.34765 -0.60546,-3.30078 0,-3.45703 2.34375,-5.2539 2.36328,-1.81641 6.89453,-1.81641 3.28125,0 7.26562,0.83984 v 6.23047 h -1.73828 l -0.87891,-3.59375 q -1.99218,-1.44531 -4.64843,-1.44531 -2.40235,0 -3.69141,0.89844 -1.28906,0.8789 -1.28906,2.71484 0,1.3086 1.07422,2.2461 1.07422,0.91796 3.35937,1.64062 4.47266,1.46484 6.13281,2.55859 1.67969,1.07422 2.5586,2.67579 0.8789,1.60156 0.8789,3.76953 0,8.33984 -9.82421,8.33984 -2.2461,0 -4.58985,-0.39062 -2.32422,-0.3711 -4.0039,-0.9961 z"
         style="font-style:normal;font-variant:normal;font-weight:bold;font-stretch:normal;font-size:40px;font-family:'Liberation Serif';-inkscape-font-specification:'Liberation Serif, Bold';font-variant-ligatures:normal;font-variant-caps:normal;font-variant-numeric:normal;font-feature-settings:normal;text-align:start;writing-mode:lr-tb;text-anchor:start"
         id="path1145" />
      <path
         d="m 642.87891,478.11086 q 0,3.57422 -2.5586,5.54687 -2.55859,1.97266 -7.10937,1.97266 -3.63282,0 -7.22657,-0.78125 L 625.75,478.50148 h 1.79687 l 1.01563,4.19922 q 1.69922,0.95703 3.55469,0.95703 2.36328,0 3.6914,-1.5039 1.32813,-1.52344 1.32813,-4.23828 0,-2.36328 -1.07422,-3.61328 -1.05469,-1.26954 -3.4375,-1.42579 l -2.26563,-0.13671 v -2.36329 l 2.1875,-0.15625 q 1.73829,-0.11718 2.5586,-1.26953 0.83984,-1.17187 0.83984,-3.51562 0,-2.1875 -0.99609,-3.4375 -0.97656,-1.25 -2.79297,-1.25 -1.05469,0 -1.73828,0.33203 -0.66406,0.3125 -1.26953,0.68359 l -0.83985,3.78907 h -1.69922 v -5.95704 q 1.99219,-0.50781 3.4375,-0.66406 1.44532,-0.17578 2.85157,-0.17578 8.80859,0 8.80859,6.44531 0,2.65625 -1.40625,4.29688 -1.40625,1.64062 -4.02344,2.03125 6.60157,0.80078 6.60157,6.58203 z"
         style="font-style:normal;font-variant:normal;font-weight:bold;font-stretch:normal;font-size:40px;font-family:'Liberation Serif';-inkscape-font-specification:'Liberation Serif, Bold';font-variant-ligatures:normal;font-variant-caps:normal;font-variant-numeric:normal;font-feature-settings:normal;text-align:start;writing-mode:lr-tb;text-anchor:start"
         id="path1147" />
      <path
         d="m 661.47266,485.23977 h -1.07422 l -9.66797,-22.12891 v 20.17578 l 3.51562,0.52734 v 1.42579 h -9.3164 v -1.42579 l 3.35937,-0.52734 v -22.30469 l -3.35937,-0.50781 v -1.42578 h 10.29297 l 7.48046,17.22656 7.63672,-17.22656 h 10.50782 v 1.42578 l -3.35938,0.50781 v 22.30469 l 3.35938,0.52734 v 1.42579 h -13.02735 v -1.42579 l 3.51563,-0.52734 v -20.17578 z"
         style="font-style:normal;font-variant:normal;font-weight:bold;font-stretch:normal;font-size:40px;font-family:'Liberation Serif';-inkscape-font-specification:'Liberation Serif, Bold';font-variant-ligatures:normal;font-variant-caps:normal;font-variant-numeric:normal;font-feature-settings:normal;text-align:start;writing-mode:lr-tb;text-anchor:start"
         id="path1149" />
      <path
         d="m 697.91797,485.63039 q -6.58203,0 -10.27344,-3.49609 -3.69141,-3.4961 -3.69141,-9.6875 0,-6.71875 3.51563,-10.19532 3.53516,-3.49609 10.42969,-3.49609 4.55078,0 9.43359,1.30859 l 0.11719,6.28907 h -1.75781 l -0.54688,-3.78907 q -2.57812,-1.75781 -5.99609,-1.75781 -4.53125,0 -6.6211,2.83203 -2.08984,2.8125 -2.08984,8.75 0,5.48828 2.1875,8.35938 2.1875,2.87109 6.36719,2.87109 2.20703,0 3.84765,-0.58594 1.66016,-0.58593 2.59766,-1.38671 l 0.625,-4.29688 h 1.77734 l -0.11718,6.64063 q -1.75782,0.68359 -4.57032,1.17187 -2.8125,0.46875 -5.23437,0.46875 z"
         style="font-style:normal;font-variant:normal;font-weight:bold;font-stretch:normal;font-size:40px;font-family:'Liberation Serif';-inkscape-font-specification:'Liberation Serif, Bold';font-variant-ligatures:normal;font-variant-caps:normal;font-variant-numeric:normal;font-feature-settings:normal;text-align:start;writing-mode:lr-tb;text-anchor:start"
         id="path1151" />
    </g>
    <path
       style="fill:#b3b3b3;fill-opacity:1;stroke-width:0.1776505"
       d="m 111.69219,197.05945 c -0.53215,-0.0883 -1.30119,-0.35597 -1.70897,-0.59496 -0.99644,-0.58394 -1.33314,-1.33353 -1.2764,-2.84163 0.0428,-1.13855 0.0215,-1.20642 -0.53556,-1.70483 -0.74527,-0.66679 -1.49255,-0.67674 -4.06895,-0.0541 -2.56641,0.62016 -5.541931,0.6457 -8.14173,0.0698 -2.387565,-0.52884 -2.853641,-0.59275 -3.372629,-0.46249 -0.747689,0.18766 -1.057851,0.88734 -1.063551,2.39927 -0.006,1.59849 -0.287634,2.10444 -1.51511,2.72214 -0.662624,0.33347 -1.087631,0.40231 -2.483568,0.40231 -1.669535,0 -1.686222,-0.005 -1.923973,-0.49801 -0.207914,-0.43173 -0.200635,-0.55783 0.0547,-0.94751 0.355061,-0.54188 1.244634,-0.93803 2.418687,-1.07707 l 0.868259,-0.1028 0.0013,-0.73028 c 6.71e-4,-0.40164 0.16057,-1.39485 0.355301,-2.20713 0.194732,-0.81227 0.354058,-1.59581 0.354058,-1.74116 0,-0.38087 -1.112249,-0.79649 -1.776134,-0.66372 -1.067651,0.21355 -1.950625,1.54033 -1.953536,2.93545 -5.5e-4,0.2612 -0.199228,0.7105 -0.44152,0.99846 -0.685737,0.81494 -1.302941,0.98639 -3.163447,0.87877 -0.900192,-0.0521 -2.10047,-0.0206 -2.667283,0.07 -1.729379,0.27618 -2.459961,-0.36928 -1.819612,-1.60758 0.493183,-0.95371 1.138807,-1.14609 3.433676,-1.02311 l 2.014278,0.10799 0.431471,-0.92674 c 0.237308,-0.50969 0.432251,-1.02984 0.433206,-1.15586 0.0031,-0.40634 0.664274,-1.53583 1.13911,-1.94591 0.253813,-0.2192 0.46148,-0.51284 0.46148,-0.65255 0,-0.779 -1.874291,-1.99152 -2.86134,-1.85111 -0.376399,0.0536 -0.422062,0.15451 -0.438411,0.96949 -0.04387,2.18677 -1.943501,3.29011 -3.514764,2.04143 -0.360983,-0.28688 -1.174522,-0.65372 -1.845346,-0.83208 -1.993707,-0.53013 -2.503762,-1.09736 -1.762087,-1.95962 0.677911,-0.78811 1.966822,-0.72987 4.060107,0.18349 0.239987,0.10466 0.323175,0.007 0.415555,-0.48477 0.182378,-0.97216 0.734677,-1.71369 1.553106,-2.08521 1.085768,-0.49288 1.880321,-0.43883 3.087173,0.21 2.192934,1.179 2.4096,1.25937 3.133511,1.16226 0.404904,-0.0544 0.89655,-0.28171 1.167964,-0.54023 0.781587,-0.74446 2.399443,-1.62715 4.264603,-2.32678 1.964878,-0.73702 2.616389,-1.25126 2.445895,-1.93057 -0.05954,-0.23724 -0.58657,-0.92782 -1.171171,-1.5346 -1.146238,-1.18976 -1.361824,-1.74515 -1.207804,-3.11162 0.162254,-1.43951 1.266145,-2.38006 2.976737,-2.53625 0.994494,-0.0908 2.212048,0.506 2.797998,1.37148 0.76523,1.13031 0.42019,3.25956 -0.75441,4.6555 -0.44872,0.53326 -0.57026,1.27157 -0.28379,1.72388 0.40285,0.63606 4.109371,0.55564 4.595441,-0.0998 0.30249,-0.40784 0.15564,-1.24145 -0.32297,-1.83348 -1.03543,-1.28077 -1.38081,-3.12417 -0.79688,-4.25335 0.76693,-1.48306 3.03693,-2.00007 4.50783,-1.02666 0.80358,0.53179 1.26237,1.26819 1.46288,2.34806 0.18827,1.01393 -0.12831,1.61317 -1.47724,2.7963 -1.2101,1.06136 -1.49107,1.59498 -1.21799,2.31324 0.12841,0.33778 0.41293,0.49183 1.37707,0.74556 1.6108,0.42393 3.89448,1.49216 5.31929,2.48817 1.5433,1.07884 2.06137,1.07671 4.08378,-0.0167 1.46906,-0.79431 1.56075,-0.81926 2.60808,-0.70979 1.24308,0.12998 1.70999,0.4655 2.06586,1.48475 0.28661,0.82089 0.68234,1.46949 0.89658,1.46949 0.0881,0 0.41238,-0.21242 0.72092,-0.47205 0.42999,-0.36181 0.74444,-0.46926 1.34655,-0.46017 1.41194,0.0214 2.45365,1.00477 1.84333,1.74015 -0.11663,0.14052 -0.5379,0.34318 -0.93624,0.45047 -0.39835,0.10718 -1.33764,0.50753 -2.0873,0.8895 -1.04903,0.53449 -1.56864,0.6945 -2.25543,0.6945 -1.29833,0 -1.63046,-0.33703 -1.81739,-1.8443 -0.083,-0.66965 -0.23512,-1.30167 -0.33795,-1.40449 -0.22891,-0.22893 -1.4213,0.13155 -2.22738,0.67328 -0.77323,0.51971 -0.77845,1.00825 -0.0207,1.93302 0.35139,0.42881 0.80945,1.28843 1.01792,1.91023 0.68124,2.03197 0.98003,2.2215 2.60821,1.65448 0.69566,-0.24225 0.87349,-0.24206 1.71322,0.002 0.64468,0.18742 1.10917,0.46847 1.48882,0.90088 0.58287,0.66386 0.66038,0.96956 0.3791,1.49514 -0.2623,0.49011 -0.63434,0.55541 -1.46743,0.25757 -0.64582,-0.23087 -1.01466,-0.24007 -2.48954,-0.0623 -2.95676,0.35673 -3.3674,0.11332 -4.15269,-2.46121 -0.5878,-1.92712 -0.97948,-2.34391 -2.20261,-2.34391 -1.54404,0 -1.87305,0.37357 -1.29855,1.47443 0.1632,0.31269 0.35115,1.24167 0.41768,2.06439 0.10322,1.27654 0.18244,1.54565 0.54033,1.83545 0.32598,0.26397 0.58197,0.31521 1.14945,0.23011 0.58257,-0.0873 0.82619,-0.0338 1.20594,0.26484 0.61969,0.48746 0.64939,1.36713 0.0647,1.91642 -0.44227,0.41549 -0.84343,0.44601 -2.42171,0.1843 z m -7.15895,-6.98027 c 1.57817,-0.39114 3.09805,-1.06526 4.74552,-2.10484 2.41451,-1.52359 2.61144,-1.82516 1.73771,-2.66117 -0.74672,-0.71447 -4.06977,-2.2222 -6.02463,-2.73344 -2.15563,-0.5638 -5.750131,-0.75795 -7.83826,-0.42342 -2.623554,0.4203 -5.131225,1.38616 -7.24803,2.79163 -1.445224,0.95958 -1.435844,1.42293 0.04426,2.18622 0.4724,0.24362 1.218653,0.69343 1.658337,0.9996 1.521686,1.05957 3.476238,1.8748 5.28748,2.20533 1.279022,0.23341 6.342383,0.0612 7.637613,-0.25991 z m -7.431564,-13.88514 c 0.757603,-0.63747 0.738763,-1.33757 -0.05744,-2.13377 -0.880421,-0.88042 -1.848721,-0.81873 -2.349516,0.14963 -0.557505,1.0781 0.205364,2.444 1.365001,2.444 0.273739,0 0.739903,-0.20576 1.041944,-0.45992 z m -1.655041,-0.70934 c -0.248514,-0.64762 -0.121042,-0.96253 0.389589,-0.96253 0.563377,0 0.923783,0.28366 0.923783,0.72712 0,0.53033 -1.122964,0.73161 -1.313372,0.23541 z m 9.995135,0.71733 c 0.29539,-0.24854 0.58544,-0.60429 0.64455,-0.79053 0.16271,-0.51266 -0.3536,-1.33902 -1.04016,-1.66482 -1.05213,-0.49926 -1.7544,-0.35876 -2.16377,0.43288 -0.40062,0.7747 -0.32102,1.37473 0.25938,1.95512 0.67721,0.67722 1.54501,0.70263 2.3,0.0673 z m -1.5402,-0.47185 c -0.11726,-0.11725 -0.21319,-0.43701 -0.21319,-0.7106 0,-0.61066 0.52709,-0.68095 1.0659,-0.14209 0.44505,0.44503 0.44775,0.64863 0.0116,0.88201 -0.44311,0.23714 -0.6034,0.23171 -0.8644,-0.0292 z"
       id="path926"
       inkscape:connector-curvature="0" />
    <g
       aria-label="UT-1591114000"
       transform="matrix(0.14086968,0,0,0.14086968,3.6721369,153.51849)"
       style="font-style:normal;font-variant:normal;font-weight:bold;font-stretch:normal;font-size:40px;line-height:1.25;font-family:'Liberation Serif';-inkscape-font-specification:'Liberation Serif, Bold';font-variant-ligatures:normal;font-variant-caps:normal;font-variant-numeric:normal;font-feature-settings:normal;text-align:start;letter-spacing:0px;word-spacing:0px;writing-mode:lr-tb;text-anchor:start;fill:#b3b3b3;fill-opacity:1;stroke:none"
       id="flowRoot934">
      <path
         d="m 618.36719,482.85695 q 2.92968,0 4.53125,-1.64062 Q 624.5,479.5757 624.5,476.39211 v -15.41016 l -3.51563,-0.50781 v -1.42578 h 8.90625 v 1.42578 l -2.96875,0.50781 v 15.25391 q 0,4.53125 -2.61718,6.95312 -2.61719,2.42188 -7.48047,2.42188 -5.25391,0 -8.06641,-2.44141 -2.79297,-2.46093 -2.79297,-7.08984 v -15.09766 l -2.96875,-0.50781 v -1.42578 h 12.48047 v 1.42578 l -3.35937,0.50781 v 15.3711 q 0,3.14453 1.58203,4.82422 1.60156,1.67968 4.66797,1.67968 z"
         style="font-style:normal;font-variant:normal;font-weight:bold;font-stretch:normal;font-size:40px;font-family:'Liberation Serif';-inkscape-font-specification:'Liberation Serif, Bold';font-variant-ligatures:normal;font-variant-caps:normal;font-variant-numeric:normal;font-feature-settings:normal;text-align:start;writing-mode:lr-tb;text-anchor:start"
         id="path1154" />
      <path
         d="m 636.94141,485.23977 v -1.42579 l 4.16015,-0.52734 v -22.16797 h -0.99609 q -4.47266,0 -6.28906,0.39063 l -0.52735,4.86328 h -1.77734 v -7.32422 h 25.44922 v 7.32422 h -1.79688 l -0.52734,-4.86328 q -1.6211,-0.35157 -6.40625,-0.35157 h -0.95703 v 22.12891 l 4.16015,0.52734 v 1.42579 z"
         style="font-style:normal;font-variant:normal;font-weight:bold;font-stretch:normal;font-size:40px;font-family:'Liberation Serif';-inkscape-font-specification:'Liberation Serif, Bold';font-variant-ligatures:normal;font-variant-caps:normal;font-variant-numeric:normal;font-feature-settings:normal;text-align:start;writing-mode:lr-tb;text-anchor:start"
         id="path1156" />
      <path
         d="m 655.35937,477.52492 v -3.39844 H 665.75 v 3.39844 z"
         style="font-style:normal;font-variant:normal;font-weight:bold;font-stretch:normal;font-size:40px;font-family:'Liberation Serif';-inkscape-font-specification:'Liberation Serif, Bold';font-variant-ligatures:normal;font-variant-caps:normal;font-variant-numeric:normal;font-feature-settings:normal;text-align:start;writing-mode:lr-tb;text-anchor:start"
         id="path1158" />
      <path
         d="m 680.59375,483.09133 4.55078,0.46875 v 1.67969 h -14.72656 v -1.67969 l 4.53125,-0.46875 v -19.7461 l -4.51172,1.48438 v -1.66016 l 7.38281,-4.33593 h 2.77344 z"
         style="font-style:normal;font-variant:normal;font-weight:bold;font-stretch:normal;font-size:40px;font-family:'Liberation Serif';-inkscape-font-specification:'Liberation Serif, Bold';font-variant-ligatures:normal;font-variant-caps:normal;font-variant-numeric:normal;font-feature-settings:normal;text-align:start;writing-mode:lr-tb;text-anchor:start"
         id="path1160" />
      <path
         d="m 696.58984,469.75148 q 4.64844,0 6.89453,1.91407 2.26563,1.91406 2.26563,5.78125 0,3.94531 -2.46094,6.07422 -2.4414,2.10937 -7.01172,2.10937 -3.63281,0 -7.22656,-0.78125 l -0.23437,-6.34766 h 1.79687 l 1.01563,4.19922 q 0.76171,0.42969 1.875,0.70313 1.11328,0.2539 2.01171,0.2539 4.49219,0 4.49219,-6.01562 0,-3.125 -1.15234,-4.51172 -1.13281,-1.40625 -3.63281,-1.40625 -1.38672,0 -2.53907,0.50781 l -0.60547,0.25391 H 690.125 v -13.4375 h 13.67187 v 4.35547 h -11.5039 v 6.875 q 2.38281,-0.52735 4.29687,-0.52735 z"
         style="font-style:normal;font-variant:normal;font-weight:bold;font-stretch:normal;font-size:40px;font-family:'Liberation Serif';-inkscape-font-specification:'Liberation Serif, Bold';font-variant-ligatures:normal;font-variant-caps:normal;font-variant-numeric:normal;font-feature-settings:normal;text-align:start;writing-mode:lr-tb;text-anchor:start"
         id="path1162" />
      <path
         d="m 708.30859,467.03664 q 0,-3.98437 2.28516,-6.13281 2.28516,-2.14844 6.34766,-2.14844 4.58984,0 6.69921,3.22266 2.12891,3.22265 2.12891,10.09765 0,4.41407 -1.25,7.44141 -1.23047,3.02734 -3.55469,4.57031 -2.32422,1.54297 -5.58593,1.54297 -3.24219,0 -6.07422,-0.83984 v -5.95703 h 1.69922 l 0.83984,3.78906 q 0.68359,0.48828 1.62109,0.76172 0.95703,0.27343 1.83594,0.27343 2.10938,0 3.28125,-2.38281 1.19141,-2.40234 1.38672,-6.93359 -2.03125,0.72265 -4.04297,0.72265 -3.53516,0 -5.58594,-2.10937 -2.03125,-2.10938 -2.03125,-5.91797 z m 5.74219,0.0781 q 0,5.58593 3.04688,5.58593 1.48437,0 2.92968,-0.35156 v -0.27344 q 0,-5.64453 -0.68359,-8.49609 -0.66406,-2.85156 -2.36328,-2.85156 -2.92969,0 -2.92969,6.38672 z"
         style="font-style:normal;font-variant:normal;font-weight:bold;font-stretch:normal;font-size:40px;font-family:'Liberation Serif';-inkscape-font-specification:'Liberation Serif, Bold';font-variant-ligatures:normal;font-variant-caps:normal;font-variant-numeric:normal;font-feature-settings:normal;text-align:start;writing-mode:lr-tb;text-anchor:start"
         id="path1164" />
      <path
         d="m 740.59375,483.09133 4.55078,0.46875 v 1.67969 h -14.72656 v -1.67969 l 4.53125,-0.46875 v -19.7461 l -4.51172,1.48438 v -1.66016 l 7.38281,-4.33593 h 2.77344 z"
         style="font-style:normal;font-variant:normal;font-weight:bold;font-stretch:normal;font-size:40px;font-family:'Liberation Serif';-inkscape-font-specification:'Liberation Serif, Bold';font-variant-ligatures:normal;font-variant-caps:normal;font-variant-numeric:normal;font-feature-settings:normal;text-align:start;writing-mode:lr-tb;text-anchor:start"
         id="path1166" />
      <path
         d="m 758.38672,483.09133 4.55078,0.46875 v 1.67969 h -14.72656 v -1.67969 l 4.53125,-0.46875 v -19.7461 l -4.51172,1.48438 v -1.66016 l 7.38281,-4.33593 h 2.77344 z"
         style="font-style:normal;font-variant:normal;font-weight:bold;font-stretch:normal;font-size:40px;font-family:'Liberation Serif';-inkscape-font-specification:'Liberation Serif, Bold';font-variant-ligatures:normal;font-variant-caps:normal;font-variant-numeric:normal;font-feature-settings:normal;text-align:start;writing-mode:lr-tb;text-anchor:start"
         id="path1168" />
      <path
         d="m 776.17969,483.09133 4.55078,0.46875 v 1.67969 h -14.72656 v -1.67969 l 4.53125,-0.46875 v -19.7461 l -4.51172,1.48438 v -1.66016 l 7.38281,-4.33593 h 2.77344 z"
         style="font-style:normal;font-variant:normal;font-weight:bold;font-stretch:normal;font-size:40px;font-family:'Liberation Serif';-inkscape-font-specification:'Liberation Serif, Bold';font-variant-ligatures:normal;font-variant-caps:normal;font-variant-numeric:normal;font-feature-settings:normal;text-align:start;writing-mode:lr-tb;text-anchor:start"
         id="path1170" />
      <path
         d="m 799.44141,480.06398 v 5.17579 h -5.25391 v -5.17579 h -10.83984 v -3.18359 l 11.79687,-17.96875 h 4.29688 v 17.14844 h 2.61718 v 4.0039 z m -5.25391,-11.75781 q 0,-2.1875 0.19531,-4.14062 l -7.79297,11.89453 h 7.59766 z"
         style="font-style:normal;font-variant:normal;font-weight:bold;font-stretch:normal;font-size:40px;font-family:'Liberation Serif';-inkscape-font-specification:'Liberation Serif, Bold';font-variant-ligatures:normal;font-variant-caps:normal;font-variant-numeric:normal;font-feature-settings:normal;text-align:start;writing-mode:lr-tb;text-anchor:start"
         id="path1172" />
      <path
         d="m 821.27734,472.03664 q 0,13.59375 -8.59375,13.59375 -4.14062,0 -6.25,-3.47656 -2.10937,-3.47656 -2.10937,-10.11719 0,-6.50391 2.10937,-9.94141 2.10938,-3.45703 6.40625,-3.45703 4.14063,0 6.28907,3.41797 2.14843,3.39844 2.14843,9.98047 z m -5.72265,0 q 0,-6.09375 -0.6836,-8.75 -0.68359,-2.67578 -2.14843,-2.67578 -1.44532,0 -2.07032,2.57812 -0.60547,2.57813 -0.60547,8.84766 0,6.36719 0.625,9.00391 0.625,2.63672 2.05079,2.63672 1.44531,0 2.1289,-2.69532 0.70313,-2.71484 0.70313,-8.94531 z"
         style="font-style:normal;font-variant:normal;font-weight:bold;font-stretch:normal;font-size:40px;font-family:'Liberation Serif';-inkscape-font-specification:'Liberation Serif, Bold';font-variant-ligatures:normal;font-variant-caps:normal;font-variant-numeric:normal;font-feature-settings:normal;text-align:start;writing-mode:lr-tb;text-anchor:start"
         id="path1174" />
      <path
         d="m 841.27734,472.03664 q 0,13.59375 -8.59375,13.59375 -4.14062,0 -6.25,-3.47656 -2.10937,-3.47656 -2.10937,-10.11719 0,-6.50391 2.10937,-9.94141 2.10938,-3.45703 6.40625,-3.45703 4.14063,0 6.28907,3.41797 2.14843,3.39844 2.14843,9.98047 z m -5.72265,0 q 0,-6.09375 -0.6836,-8.75 -0.68359,-2.67578 -2.14843,-2.67578 -1.44532,0 -2.07032,2.57812 -0.60547,2.57813 -0.60547,8.84766 0,6.36719 0.625,9.00391 0.625,2.63672 2.05079,2.63672 1.44531,0 2.1289,-2.69532 0.70313,-2.71484 0.70313,-8.94531 z"
         style="font-style:normal;font-variant:normal;font-weight:bold;font-stretch:normal;font-size:40px;font-family:'Liberation Serif';-inkscape-font-specification:'Liberation Serif, Bold';font-variant-ligatures:normal;font-variant-caps:normal;font-variant-numeric:normal;font-feature-settings:normal;text-align:start;writing-mode:lr-tb;text-anchor:start"
         id="path1176" />
      <path
         d="m 861.27734,472.03664 q 0,13.59375 -8.59375,13.59375 -4.14062,0 -6.25,-3.47656 -2.10937,-3.47656 -2.10937,-10.11719 0,-6.50391 2.10937,-9.94141 2.10938,-3.45703 6.40625,-3.45703 4.14063,0 6.28907,3.41797 2.14843,3.39844 2.14843,9.98047 z m -5.72265,0 q 0,-6.09375 -0.6836,-8.75 -0.68359,-2.67578 -2.14843,-2.67578 -1.44532,0 -2.07032,2.57812 -0.60547,2.57813 -0.60547,8.84766 0,6.36719 0.625,9.00391 0.625,2.63672 2.05079,2.63672 1.44531,0 2.1289,-2.69532 0.70313,-2.71484 0.70313,-8.94531 z"
         style="font-style:normal;font-variant:normal;font-weight:bold;font-stretch:normal;font-size:40px;font-family:'Liberation Serif';-inkscape-font-specification:'Liberation Serif, Bold';font-variant-ligatures:normal;font-variant-caps:normal;font-variant-numeric:normal;font-feature-settings:normal;text-align:start;writing-mode:lr-tb;text-anchor:start"
         id="path1178" />
    </g>
    <path
       style="fill:#999999;fill-opacity:1;stroke:none;stroke-width:1.07152843"
       d="M 249.44922 188.97656 L 249.44922 206.73047 L 249.44922 226.77148 L 259.4668 226.77148 L 259.4668 206.73047 L 257.73828 206.73047 L 257.73828 188.97656 L 249.44922 188.97656 z M 266.02539 188.97656 L 266.02539 206.73047 L 265.87305 206.73047 L 263.98438 206.73047 L 263.98438 226.77148 L 276.06836 226.77148 L 276.06836 206.73047 L 274.31445 206.73047 L 274.31445 188.97656 L 266.02539 188.97656 z M 282.60352 188.97656 L 282.60352 206.73047 L 282.47461 206.73047 L 280.58594 206.73047 L 280.58594 226.77148 L 292.66211 226.77148 L 292.66211 206.73047 L 290.89062 206.73047 L 290.89062 188.97656 L 282.60352 188.97656 z M 299.17969 188.97656 L 299.17969 206.73047 L 299.07812 206.73047 L 297.1875 206.73047 L 297.1875 226.77148 L 309.26367 226.77148 L 309.26367 206.73047 L 307.46875 206.73047 L 307.46875 188.97656 L 299.17969 188.97656 z M 315.75586 188.97656 L 315.75586 206.73047 L 315.67188 206.73047 L 313.78125 206.73047 L 313.78125 226.77148 L 325.85938 226.77148 L 325.85938 206.73047 L 324.04492 206.73047 L 324.04492 188.97656 L 315.75586 188.97656 z M 332.33398 188.97656 L 332.33398 206.73047 L 332.27344 206.73047 L 330.38477 206.73047 L 330.38477 226.77148 L 342.46094 226.77148 L 342.46094 206.73047 L 340.62305 206.73047 L 340.62305 188.97656 L 332.33398 188.97656 z M 348.91016 188.97656 L 348.91016 206.73047 L 348.86719 206.73047 L 346.97852 206.73047 L 346.97852 226.77148 L 359.05469 226.77148 L 359.05469 206.73047 L 357.19922 206.73047 L 357.19922 188.97656 L 348.91016 188.97656 z M 365.49023 188.97656 L 365.49023 206.73047 L 365.4707 206.73047 L 363.58008 206.73047 L 363.58203 226.77148 L 375.6582 226.77148 L 375.6582 206.73047 L 373.77734 206.73047 L 373.77734 188.97656 L 365.49023 188.97656 z M 382.06445 188.97656 L 382.06445 206.73047 L 380.17383 206.73047 L 380.17383 226.77148 L 392.25195 226.77148 L 392.25195 206.73047 L 390.35352 206.73047 L 390.35352 188.97656 L 382.06445 188.97656 z M 398.64062 188.97656 L 398.64062 206.73047 L 396.76953 206.73047 L 396.76953 226.77148 L 408.85352 226.77148 L 408.85352 206.73047 L 406.92969 206.73047 L 406.92969 188.97656 L 398.64062 188.97656 z M 415.21875 188.97656 L 415.21875 206.73047 L 413.37109 206.73047 L 413.37109 226.77148 L 425.44727 226.77148 L 425.44727 206.73047 L 423.50781 206.73047 L 423.50781 188.97656 L 415.21875 188.97656 z M 431.79492 188.97656 L 431.79492 206.73047 L 429.96484 206.73047 L 429.96484 226.77148 L 442.04883 226.77148 L 442.04883 206.73047 L 440.08398 206.73047 L 440.08398 188.97656 L 431.79492 188.97656 z M 448.37305 188.97656 L 448.37305 206.73047 L 446.56836 206.73047 L 446.56836 226.77148 L 458.64453 226.77148 L 458.64453 206.73047 L 456.66016 206.73047 L 456.66016 188.97656 L 448.37305 188.97656 z M 464.94922 188.97656 L 464.94922 206.73047 L 463.16211 206.73047 L 463.16211 226.77148 L 475.24609 226.77148 L 475.24609 206.73047 L 473.23828 206.73047 L 473.23828 188.97656 L 464.94922 188.97656 z M 481.52539 188.97656 L 481.52539 206.73047 L 479.76367 206.73047 L 479.76367 226.77148 L 491.83984 226.77148 L 491.83984 206.73047 L 489.81445 206.73047 L 489.81445 188.97656 L 481.52539 188.97656 z M 498.10352 188.97656 L 498.10352 206.73047 L 496.36523 206.73047 L 496.36523 226.77148 L 506.45703 226.77148 L 506.45703 206.73828 L 506.39258 188.97656 L 498.10352 188.97656 z M 188.97656 249.44922 L 188.97656 257.73828 L 206.73047 257.73828 L 206.73047 259.4668 L 226.77148 259.4668 L 226.77148 249.44922 L 206.73047 249.44922 L 188.97656 249.44922 z M 529.13477 249.44922 L 529.13477 259.4668 L 549.17578 259.4668 L 549.17578 257.73828 L 566.92969 257.73828 L 566.92969 249.44922 L 549.17578 249.44922 L 529.13477 249.44922 z M 206.73047 263.98438 L 206.73047 265.87305 L 206.73047 266.02539 L 188.97656 266.02539 L 188.97656 274.31445 L 206.73047 274.31445 L 206.73047 276.06836 L 226.77148 276.06836 L 226.77148 263.98438 L 206.73047 263.98438 z M 529.13477 263.98438 L 529.13477 276.06836 L 549.17578 276.06836 L 549.17578 274.31445 L 566.92969 274.31445 L 566.92969 266.02539 L 549.17578 266.02539 L 549.17578 265.87305 L 549.17578 263.98438 L 529.13477 263.98438 z M 206.73047 280.58594 L 206.73047 282.47461 L 206.73047 282.60352 L 188.97656 282.60352 L 188.97656 290.89062 L 206.73047 290.89062 L 206.73047 292.66211 L 226.77148 292.66211 L 226.77148 280.58594 L 206.73047 280.58594 z M 529.13477 280.58594 L 529.13477 292.66211 L 549.17578 292.66211 L 549.17578 290.89062 L 566.92969 290.89062 L 566.92969 282.60352 L 549.17578 282.60352 L 549.17578 282.47461 L 549.17578 280.58594 L 529.13477 280.58594 z M 206.73047 297.1875 L 206.73047 299.07812 L 206.73047 299.17969 L 188.97656 299.17969 L 188.97656 307.46875 L 206.73047 307.46875 L 206.73047 309.26367 L 226.77148 309.26367 L 226.77148 297.1875 L 206.73047 297.1875 z M 529.13477 297.1875 L 529.13477 309.26367 L 549.17578 309.26367 L 549.17578 307.46875 L 566.92969 307.46875 L 566.92969 299.17969 L 549.17578 299.17969 L 549.17578 299.07812 L 549.17578 297.1875 L 529.13477 297.1875 z M 206.73047 313.78125 L 206.73047 315.67188 L 206.73047 315.75586 L 188.97656 315.75586 L 188.97656 324.04492 L 206.73047 324.04492 L 206.73047 325.85938 L 226.77148 325.85938 L 226.77148 313.78125 L 206.73047 313.78125 z M 529.13477 313.78125 L 529.13477 325.85938 L 549.17578 325.85938 L 549.17578 324.04492 L 566.92969 324.04492 L 566.92969 315.75586 L 549.17578 315.75586 L 549.17578 315.67188 L 549.17578 313.78125 L 529.13477 313.78125 z M 206.73047 330.38477 L 206.73047 332.27344 L 206.73047 332.33398 L 188.97656 332.33398 L 188.97656 340.62305 L 206.73047 340.62305 L 206.73047 342.46094 L 226.77148 342.46094 L 226.77148 330.38477 L 206.73047 330.38477 z M 529.13477 330.38477 L 529.13477 342.46094 L 549.17578 342.46094 L 549.17578 340.62305 L 566.92969 340.62305 L 566.92969 332.33398 L 549.17578 332.33398 L 549.17578 332.27344 L 549.17578 330.38477 L 529.13477 330.38477 z M 206.73047 346.97852 L 206.73047 348.86719 L 206.73047 348.91016 L 188.97656 348.91016 L 188.97656 357.19922 L 206.73047 357.19922 L 206.73047 359.05469 L 226.77148 359.05469 L 226.77148 346.97852 L 206.73047 346.97852 z M 529.13477 346.97852 L 529.13477 359.05469 L 549.17578 359.05469 L 549.17578 357.19922 L 566.92969 357.19922 L 566.92969 348.91016 L 549.17578 348.91016 L 549.17578 348.86719 L 549.17578 346.97852 L 529.13477 346.97852 z M 206.73047 363.58008 L 206.73047 365.4707 L 206.73047 365.48828 L 188.97656 365.48828 L 188.97656 373.77539 L 206.73047 373.77539 L 206.73047 375.65625 L 226.77148 375.65625 L 226.77148 363.58008 L 206.73047 363.58008 z M 549.17578 363.58008 L 529.13477 363.58203 L 529.13477 375.6582 L 549.17578 375.6582 L 549.17578 373.77734 L 566.92969 373.77734 L 566.92969 365.49023 L 549.17578 365.49023 L 549.17578 365.4707 L 549.17578 363.58008 z M 206.73047 380.17383 L 206.73047 382.06445 L 188.97656 382.06445 L 188.97656 390.35352 L 206.73047 390.35352 L 206.73047 392.25195 L 226.77148 392.25195 L 226.77148 380.17383 L 206.73047 380.17383 z M 529.13477 380.17383 L 529.13477 392.25195 L 549.17578 392.25195 L 549.17578 390.35352 L 566.92969 390.35352 L 566.92969 382.06445 L 549.17578 382.06445 L 549.17578 380.17383 L 529.13477 380.17383 z M 206.73047 396.76953 L 206.73047 398.64062 L 188.97656 398.64062 L 188.97656 406.92969 L 206.73047 406.92969 L 206.73047 408.85352 L 226.77148 408.85352 L 226.77148 396.76953 L 206.73047 396.76953 z M 529.13477 396.76953 L 529.13477 408.85352 L 549.17578 408.85352 L 549.17578 406.92969 L 566.92969 406.92969 L 566.92969 398.64062 L 549.17578 398.64062 L 549.17578 396.76953 L 529.13477 396.76953 z M 206.73047 413.37109 L 206.73047 415.21875 L 188.97656 415.21875 L 188.97656 423.50781 L 206.73047 423.50781 L 206.73047 425.44727 L 226.77148 425.44727 L 226.77148 413.37109 L 206.73047 413.37109 z M 529.13477 413.37109 L 529.13477 425.44727 L 549.17578 425.44727 L 549.17578 423.50781 L 566.92969 423.50781 L 566.92969 415.21875 L 549.17578 415.21875 L 549.17578 413.37109 L 529.13477 413.37109 z M 206.73047 429.96484 L 206.73047 431.79492 L 188.97656 431.79492 L 188.97656 440.08398 L 206.73047 440.08398 L 206.73047 442.04883 L 226.77148 442.04883 L 226.77148 429.96484 L 206.73047 429.96484 z M 529.13477 429.96484 L 529.13477 442.04883 L 549.17578 442.04883 L 549.17578 440.08398 L 566.92969 440.08398 L 566.92969 431.79492 L 549.17578 431.79492 L 549.17578 429.96484 L 529.13477 429.96484 z M 206.73047 446.56836 L 206.73047 448.37305 L 188.97656 448.37305 L 188.97656 456.66016 L 206.73047 456.66016 L 206.73047 458.64453 L 226.77148 458.64453 L 226.77148 446.56836 L 206.73047 446.56836 z M 529.13477 446.56836 L 529.13477 458.64453 L 549.17578 458.64453 L 549.17578 456.66016 L 566.92969 456.66016 L 566.92969 448.37305 L 549.17578 448.37305 L 549.17578 446.56836 L 529.13477 446.56836 z M 206.73047 463.16211 L 206.73047 464.94922 L 188.97656 464.94922 L 188.97656 473.23828 L 206.73047 473.23828 L 206.73047 475.24609 L 226.77148 475.24609 L 226.77148 463.16211 L 206.73047 463.16211 z M 529.13477 463.16211 L 529.13477 475.24609 L 549.17578 475.24609 L 549.17578 473.23828 L 566.92969 473.23828 L 566.92969 464.94922 L 549.17578 464.94922 L 549.17578 463.16211 L 529.13477 463.16211 z M 206.73047 479.76367 L 206.73047 481.52539 L 188.97656 481.52539 L 188.97656 489.81445 L 206.73047 489.81445 L 206.73047 491.83984 L 226.77148 491.83984 L 226.77148 479.76367 L 206.73047 479.76367 z M 529.13477 479.76367 L 529.13477 491.83984 L 549.17578 491.83984 L 549.17578 489.81445 L 566.92969 489.81445 L 566.92969 481.52539 L 549.17578 481.52539 L 549.17578 479.76367 L 529.13477 479.76367 z M 206.73047 496.36523 L 206.73047 498.10352 L 188.97656 498.10352 L 188.97656 506.39258 L 206.73828 506.45703 L 226.77148 506.45703 L 226.77148 496.36523 L 206.73047 496.36523 z M 529.13477 496.36523 L 529.13477 506.45703 L 549.16797 506.45703 L 566.92969 506.39258 L 566.92969 498.10352 L 549.17578 498.10352 L 549.17578 496.36523 L 529.13477 496.36523 z M 249.44922 529.13477 L 249.44922 549.17578 L 249.44922 566.92969 L 257.73828 566.92969 L 257.73828 549.17578 L 259.4668 549.17578 L 259.4668 529.13477 L 249.44922 529.13477 z M 263.98438 529.13477 L 263.98438 549.17578 L 265.87305 549.17578 L 266.02539 549.17578 L 266.02539 566.92969 L 274.31445 566.92969 L 274.31445 549.17578 L 276.06836 549.17578 L 276.06836 529.13477 L 263.98438 529.13477 z M 280.58594 529.13477 L 280.58594 549.17578 L 282.47461 549.17578 L 282.60352 549.17578 L 282.60352 566.92969 L 290.89062 566.92969 L 290.89062 549.17578 L 292.66211 549.17578 L 292.66211 529.13477 L 280.58594 529.13477 z M 297.1875 529.13477 L 297.1875 549.17578 L 299.07812 549.17578 L 299.17969 549.17578 L 299.17969 566.92969 L 307.46875 566.92969 L 307.46875 549.17578 L 309.26367 549.17578 L 309.26367 529.13477 L 297.1875 529.13477 z M 313.78125 529.13477 L 313.78125 549.17578 L 315.67188 549.17578 L 315.75586 549.17578 L 315.75586 566.92969 L 324.04492 566.92969 L 324.04492 549.17578 L 325.85938 549.17578 L 325.85938 529.13477 L 313.78125 529.13477 z M 330.38477 529.13477 L 330.38477 549.17578 L 332.27344 549.17578 L 332.33398 549.17578 L 332.33398 566.92969 L 340.62305 566.92969 L 340.62305 549.17578 L 342.46094 549.17578 L 342.46094 529.13477 L 330.38477 529.13477 z M 346.97852 529.13477 L 346.97852 549.17578 L 348.86719 549.17578 L 348.91016 549.17578 L 348.91016 566.92969 L 357.19922 566.92969 L 357.19922 549.17578 L 359.05469 549.17578 L 359.05469 529.13477 L 346.97852 529.13477 z M 363.58203 529.13477 L 363.58008 549.17578 L 365.4707 549.17578 L 365.49023 549.17578 L 365.49023 566.92969 L 373.77734 566.92969 L 373.77734 549.17578 L 375.6582 549.17578 L 375.6582 529.13477 L 363.58203 529.13477 z M 380.17383 529.13477 L 380.17383 549.17578 L 382.06445 549.17578 L 382.06445 566.92969 L 390.35352 566.92969 L 390.35352 549.17578 L 392.25195 549.17578 L 392.25195 529.13477 L 380.17383 529.13477 z M 396.76953 529.13477 L 396.76953 549.17578 L 398.64062 549.17578 L 398.64062 566.92969 L 406.92969 566.92969 L 406.92969 549.17578 L 408.85352 549.17578 L 408.85352 529.13477 L 396.76953 529.13477 z M 413.37109 529.13477 L 413.37109 549.17578 L 415.21875 549.17578 L 415.21875 566.92969 L 423.50781 566.92969 L 423.50781 549.17578 L 425.44727 549.17578 L 425.44727 529.13477 L 413.37109 529.13477 z M 429.96484 529.13477 L 429.96484 549.17578 L 431.79492 549.17578 L 431.79492 566.92969 L 440.08398 566.92969 L 440.08398 549.17578 L 442.04883 549.17578 L 442.04883 529.13477 L 429.96484 529.13477 z M 446.56836 529.13477 L 446.56836 549.17578 L 448.37305 549.17578 L 448.37305 566.92969 L 456.66016 566.92969 L 456.66016 549.17578 L 458.64453 549.17578 L 458.64453 529.13477 L 446.56836 529.13477 z M 463.16211 529.13477 L 463.16211 549.17578 L 464.94922 549.17578 L 464.94922 566.92969 L 473.23828 566.92969 L 473.23828 549.17578 L 475.24609 549.17578 L 475.24609 529.13477 L 463.16211 529.13477 z M 479.76367 529.13477 L 479.76367 549.17578 L 481.52539 549.17578 L 481.52539 566.92969 L 489.81445 566.92969 L 489.81445 549.17578 L 491.83984 549.17578 L 491.83984 529.13477 L 479.76367 529.13477 z M 496.36523 529.13477 L 496.36523 549.17578 L 498.10352 549.17578 L 498.10352 566.92969 L 506.39258 566.92969 L 506.45703 549.16797 L 506.45703 529.13477 L 496.36523 529.13477 z "
       transform="matrix(0.26458333,0,0,0.26458333,0,97)"
       id="rect969" />
  </g>
</svg>
